<svg width="30" height="30" viewBox="0 0 30 30" fill="none" xmlns="http://www.w3.org/2000/svg">
    <g clip-path="url(#clip0_1400_21720)">
        <path d="M4.62891 16.7937H7.30272V18.7673H4.62891V16.7937Z" fill="#4D4D4D"/>
        <path
            d="M28.2221 11.5664H1.77764C0.808262 11.5664 0.0224609 12.3522 0.0224609 13.3216V28.2451C0.0224609 29.2144 0.808262 30.0002 1.77764 30.0002H28.2221C29.1914 30.0002 29.9772 29.2144 29.9772 28.245V13.3216C29.9772 12.3522 29.1914 11.5664 28.2221 11.5664ZM7.10117 26.1916H2.75691V24.4365H7.10117V26.1916ZM9.05785 19.0604C9.05785 19.8669 8.40172 20.523 7.59523 20.523H4.33631C3.52982 20.523 2.87369 19.8669 2.87369 19.0604V16.5018C2.87369 15.6953 3.52982 15.0391 4.33631 15.0391H7.59518C8.40166 15.0391 9.05779 15.6953 9.05779 16.5018V19.0604H9.05785ZM13.815 26.1916H9.47076V24.4365H13.815V26.1916ZM20.5289 26.1916H16.1847V24.4365H20.5289V26.1916ZM27.2428 26.1916H22.8985V24.4365H27.2428V26.1916Z"
            fill="#5EBFD2"/>
        <path
            d="M23.5844 4.2636L19.8348 0.514072C19.1494 -0.171357 18.0381 -0.171357 17.3526 0.514072L8.05566 9.81103H18.3539L23.5844 4.2636Z"
            fill="#4D4D4D"/>
        <path d="M23.4765 9.81113L26.221 6.90037L24.826 5.50537L20.7661 9.81113H23.4765Z" fill="#4D4D4D"/>
        <path
            d="M28.2218 9.81119C28.5988 9.81119 28.9619 9.87166 29.3025 9.98217L27.4624 8.14209L25.8887 9.81125H28.2218V9.81119Z"
            fill="#4D4D4D"/>
    </g>
    <defs>
        <clipPath id="clip0_1400_21720">
            <rect width="30" height="30" fill="white"/>
        </clipPath>
    </defs>
</svg>
