<svg width="30" height="30" viewBox="0 0 30 30" fill="none" xmlns="http://www.w3.org/2000/svg">
    <path fill-rule="evenodd" clip-rule="evenodd"
          d="M13.8598 0.00636867C13.8542 0.0120043 13.7375 0.0264989 13.6003 0.0386014C13.2392 0.0704693 12.9484 0.106979 12.6394 0.159241C12.5677 0.171364 12.4595 0.189386 12.3989 0.199299C11.9771 0.268224 11.0829 0.474575 10.7052 0.590085C10.3575 0.696433 10.0059 0.811295 9.94357 0.838906C9.9105 0.853543 9.82932 0.884802 9.76318 0.908379C9.69704 0.931935 9.62488 0.958998 9.60283 0.968506C9.58079 0.978014 9.46804 1.02476 9.3523 1.07242C9.15515 1.15359 9.0752 1.18834 8.85122 1.29021C8.80161 1.31277 8.71174 1.35268 8.65151 1.3789C8.47405 1.45615 7.6815 1.86283 7.64705 1.89434C7.62965 1.91023 7.60928 1.92324 7.60179 1.92324C7.59431 1.92324 7.48333 1.9871 7.3552 2.06515C7.22706 2.1432 7.1155 2.20705 7.10726 2.20705C7.09905 2.20705 7.08073 2.22118 7.06656 2.23848C7.05239 2.25575 7.00314 2.28721 6.95714 2.30841C6.91114 2.32962 6.8619 2.36108 6.84773 2.37835C6.83356 2.39565 6.81093 2.40978 6.79746 2.40978C6.78397 2.40978 6.75661 2.42802 6.73667 2.45032C6.71672 2.47262 6.68967 2.49086 6.67654 2.49086C6.66341 2.49086 6.63635 2.50911 6.61641 2.53141C6.59647 2.55371 6.56911 2.57195 6.55562 2.57195C6.54215 2.57195 6.51912 2.58659 6.50445 2.60447C6.48976 2.62235 6.45935 2.6452 6.43684 2.65523C6.41433 2.66527 6.35535 2.70532 6.30574 2.74425C6.25613 2.78317 6.18384 2.83663 6.14509 2.86304C6.10635 2.88946 6.06242 2.92599 6.04744 2.94423C6.03247 2.96248 6.00956 2.9774 5.99656 2.9774C5.98353 2.9774 5.94262 3.00896 5.90564 3.04756C5.86866 3.08616 5.83228 3.11389 5.82479 3.10923C5.81731 3.10454 5.77632 3.13682 5.73371 3.18095C5.6911 3.2251 5.6453 3.26121 5.63193 3.26121C5.61856 3.26121 5.58208 3.28857 5.55088 3.32202C5.51967 3.35547 5.48455 3.38284 5.47287 3.38284C5.46118 3.38284 5.39801 3.43749 5.33251 3.50429C5.26699 3.57111 5.20409 3.62584 5.19273 3.62592C5.18134 3.62602 5.11851 3.68084 5.05305 3.74774C4.98758 3.81464 4.92449 3.86937 4.91282 3.86937C4.8852 3.86937 3.83609 4.93175 3.81725 4.97883C3.80933 4.99857 3.73463 5.0824 3.65127 5.16507C3.56791 5.24774 3.4997 5.32441 3.4997 5.33541C3.4997 5.34644 3.45685 5.4042 3.4045 5.46376C3.18553 5.71286 3.13893 5.76983 3.13893 5.78837C3.13893 5.79912 3.11187 5.83413 3.0788 5.86618C3.04573 5.89823 3.01867 5.93472 3.01867 5.94727C3.01867 5.95982 2.99161 5.99631 2.95854 6.02836C2.92547 6.06041 2.89841 6.0969 2.89841 6.10945C2.89841 6.12199 2.87135 6.15848 2.83828 6.19053C2.80521 6.22258 2.77815 6.25907 2.77815 6.27162C2.77815 6.28417 2.75109 6.32066 2.71802 6.35271C2.68495 6.38476 2.65789 6.42154 2.65789 6.43445C2.65789 6.44736 2.63985 6.47445 2.61781 6.49462C2.59576 6.51479 2.57772 6.54216 2.57772 6.55543C2.57772 6.56871 2.55968 6.59608 2.53763 6.61625C2.51559 6.63642 2.49755 6.66379 2.49755 6.67707C2.49755 6.69034 2.47951 6.71771 2.45746 6.73788C2.43541 6.75805 2.41737 6.78573 2.41737 6.79937C2.41737 6.81299 2.40368 6.83564 2.38695 6.84968C2.37019 6.86373 2.34211 6.90592 2.32453 6.9434C2.30694 6.98089 2.28455 7.01156 2.27479 7.01156C2.26503 7.01156 2.25703 7.02413 2.25703 7.03949C2.25703 7.05484 2.24306 7.07914 2.22596 7.09348C2.20889 7.10781 2.17734 7.15855 2.15587 7.20623C2.13441 7.25391 2.10777 7.29857 2.09668 7.3055C2.0856 7.31244 2.05854 7.35805 2.03655 7.40686C2.01457 7.45568 1.98783 7.50111 1.97713 7.50778C1.96644 7.51447 1.93045 7.57768 1.89715 7.64822C1.86386 7.71879 1.82308 7.7879 1.80652 7.80179C1.78998 7.81567 1.78098 7.83451 1.78656 7.84361C1.79213 7.85273 1.7884 7.86536 1.77826 7.87171C1.75312 7.88742 1.21479 8.98684 1.21479 9.02248C1.21479 9.03813 1.20396 9.06188 1.19073 9.07526C1.17751 9.08864 1.1744 9.09959 1.18382 9.09959C1.19324 9.09959 1.18751 9.11554 1.17109 9.13507C1.15466 9.15457 1.1296 9.20247 1.11541 9.2415C1.1012 9.28052 1.06354 9.36913 1.03167 9.4384C0.999824 9.50767 0.975331 9.57153 0.977256 9.5803C0.97918 9.58908 0.970261 9.62194 0.957453 9.65333C0.944665 9.68471 0.934183 9.72272 0.934183 9.7378C0.934183 9.75286 0.927408 9.76823 0.91911 9.77196C0.903798 9.77881 0.618804 10.6293 0.526225 10.9444C0.396065 11.3874 0.198881 12.2839 0.222953 12.3234C0.229587 12.3342 0.226681 12.3431 0.216459 12.3431C0.206237 12.3431 0.191665 12.3819 0.184109 12.4293C0.156189 12.6041 0.131255 12.8031 0.119971 12.9412C0.113577 13.0192 0.100249 13.0917 0.0903472 13.1023C0.0804259 13.1129 0.0723284 13.1927 0.0723284 13.2797C0.0723284 13.3667 0.064672 13.4378 0.0553118 13.4378C0.0459517 13.4378 0.0368521 13.5159 0.0350883 13.6113C0.0333446 13.7067 0.0232829 13.8236 0.0127803 13.8711C-0.0119529 13.9827 0.00221759 16.0514 0.0296967 16.3368C0.0409609 16.4538 0.0556726 16.618 0.0623871 16.7017C0.0691015 16.7853 0.0798847 16.8674 0.0863185 16.8841C0.0927724 16.9008 0.101311 16.9556 0.105279 17.0057C0.109268 17.0559 0.121194 17.1471 0.131756 17.2085C0.142339 17.2698 0.16138 17.3838 0.174087 17.4619C0.261576 17.9995 0.421139 18.7036 0.554726 19.1414C0.666066 19.5063 0.899288 20.2183 0.91434 20.2391C0.922377 20.2503 0.940236 20.2959 0.954026 20.3405C0.967835 20.3851 0.987037 20.4303 0.996737 20.4409C1.00642 20.4514 1.01436 20.4724 1.01436 20.4874C1.01436 20.5025 1.03239 20.5525 1.05444 20.5987C1.07649 20.6449 1.09453 20.6903 1.09453 20.6996C1.09453 20.709 1.1261 20.784 1.16468 20.8662C1.20326 20.9485 1.23483 21.0216 1.23483 21.0287C1.23483 21.0403 1.62222 21.8286 1.70354 21.9826C1.7212 22.016 1.73571 22.0536 1.73579 22.0662C1.73585 22.0788 1.74934 22.1004 1.76573 22.1141C1.78215 22.1279 1.83185 22.2146 1.87621 22.3069C1.92057 22.3992 1.97027 22.4859 1.98669 22.4997C2.00308 22.5135 2.01651 22.5337 2.01651 22.5446C2.01651 22.5556 2.04357 22.6051 2.07664 22.6547C2.10971 22.7042 2.13677 22.752 2.13677 22.7609C2.13677 22.7698 2.15481 22.7935 2.17686 22.8137C2.1989 22.8339 2.21694 22.8588 2.21694 22.869C2.21694 22.8792 2.27781 22.9804 2.35223 23.0939C2.42663 23.2074 2.49652 23.3149 2.50757 23.3328C2.57319 23.4395 2.63661 23.5274 2.66519 23.5514C2.68323 23.5665 2.69798 23.59 2.69798 23.6037C2.69798 23.6173 2.71602 23.645 2.73806 23.6651C2.76011 23.6853 2.77815 23.7126 2.77815 23.7257C2.77815 23.7389 2.80497 23.7762 2.83772 23.8087C2.87049 23.8413 2.89755 23.8777 2.89785 23.8898C2.89817 23.9019 2.92521 23.9384 2.95798 23.9709C2.99075 24.0034 3.01781 24.0396 3.01811 24.0513C3.01841 24.0629 3.05475 24.1081 3.09884 24.1517C3.14294 24.1952 3.17909 24.2404 3.17919 24.2521C3.17927 24.2638 3.22399 24.3189 3.27857 24.3747C3.33312 24.4304 3.37814 24.4855 3.3786 24.4971C3.37906 24.5086 3.42454 24.563 3.47966 24.6179C3.53478 24.6729 3.57988 24.7282 3.57988 24.741C3.57988 24.7537 3.66105 24.8464 3.76026 24.9469C3.85948 25.0475 3.94065 25.138 3.94065 25.148C3.94065 25.1769 4.69552 25.9393 4.80972 26.0257C4.86638 26.0686 4.95295 26.1457 5.0021 26.197C5.05124 26.2484 5.10123 26.2904 5.11317 26.2904C5.12512 26.2904 5.18679 26.3451 5.25021 26.412C5.31363 26.4789 5.3768 26.5337 5.39061 26.5337C5.40442 26.5337 5.45094 26.5701 5.49399 26.6147C5.53705 26.6593 5.58214 26.6958 5.59421 26.6958C5.60628 26.6958 5.65137 26.7323 5.69443 26.7769C5.73748 26.8215 5.78271 26.858 5.79496 26.858C5.80719 26.858 5.84312 26.8854 5.87481 26.9188C5.9065 26.9523 5.94258 26.9796 5.95499 26.9796C5.96739 26.9796 6.00347 27.007 6.03516 27.0405C6.06685 27.0739 6.1026 27.1013 6.11463 27.1013C6.12666 27.1013 6.15193 27.1195 6.17081 27.1418C6.21531 27.1944 6.23783 27.193 6.2752 27.1353C6.31815 27.069 6.40451 26.8122 6.41077 26.7323C6.41363 26.6955 6.42257 26.6604 6.43063 26.6543C6.43869 26.6482 6.4644 26.5479 6.48777 26.4313C6.51114 26.3148 6.53245 26.2103 6.53513 26.1992C6.5378 26.188 6.54572 26.1561 6.55273 26.1282C6.55973 26.1003 6.56873 26.0502 6.57274 26.0167C6.57672 25.9833 6.58536 25.9422 6.59192 25.9255C6.59847 25.9088 6.60841 25.8586 6.61398 25.814C6.61956 25.7694 6.63399 25.6782 6.64607 25.6113C6.68678 25.3858 6.7245 25.1218 6.76625 24.77C6.86382 23.9478 6.86362 22.5381 6.76579 21.5872C6.706 21.0063 6.67425 20.7446 6.66088 20.7227C6.65455 20.7124 6.64655 20.6464 6.64313 20.5761C6.63968 20.5059 6.63 20.4441 6.62162 20.4389C6.61324 20.4336 6.60639 20.3888 6.60639 20.3393C6.60639 20.2898 6.59883 20.2493 6.58959 20.2493C6.58035 20.2493 6.57123 20.2072 6.56931 20.1557C6.56738 20.1043 6.55971 20.0522 6.55227 20.04C6.54483 20.0278 6.53642 19.9992 6.53355 19.9765C6.52413 19.9012 6.45149 19.5941 6.38712 19.3573C6.24176 18.8225 6.14467 18.4023 6.10844 18.1511C6.09717 18.0731 6.07833 17.9429 6.06657 17.8618C6.03871 17.6699 6.03877 16.9197 6.06667 16.7118C6.10695 16.4117 6.18644 16.0169 6.25521 15.7756C6.35158 15.4375 6.43608 15.1524 6.48535 14.999C6.50858 14.9267 6.5306 14.8446 6.53429 14.8166C6.53798 14.7886 6.54596 14.752 6.55201 14.7353C6.55808 14.7185 6.56877 14.6775 6.57578 14.644C6.58278 14.6106 6.59741 14.5422 6.60827 14.492C6.62711 14.4051 6.64691 14.3022 6.68826 14.0764C6.70913 13.9625 6.73859 13.7501 6.76705 13.5088C6.77758 13.4196 6.79571 13.1277 6.80738 12.8601C6.83542 12.2163 6.86374 11.7056 6.87765 11.5931C6.88384 11.5429 6.90299 11.3878 6.9202 11.2484C6.98823 10.6971 7.01661 10.5533 7.12021 10.2348C7.22742 9.90525 7.45577 9.47448 7.58692 9.35445C7.60983 9.33347 7.62859 9.30732 7.62859 9.29635C7.62859 9.28538 7.8225 9.08019 8.05951 8.84037C8.29652 8.60053 8.49044 8.39688 8.49044 8.38775C8.49044 8.37865 8.51616 8.34123 8.5476 8.30462C8.62607 8.21321 8.70242 8.0691 8.73978 7.94187C8.77922 7.80748 8.78071 7.49227 8.7427 7.31564C8.72711 7.24317 8.69013 7.0744 8.66053 6.9406C8.61385 6.72965 8.60651 6.65021 8.60527 6.34258C8.6037 5.95554 8.63377 5.77696 8.74018 5.5417C8.76818 5.47979 8.79109 5.42206 8.79109 5.41344C8.79109 5.38328 8.89351 5.19018 8.92233 5.16598C8.93834 5.15254 8.95143 5.1304 8.95143 5.11678C8.95143 5.10314 8.96947 5.07546 8.99152 5.05529C9.01357 5.03512 9.03167 5.00861 9.03173 4.9964C9.03193 4.95876 9.70886 4.27482 9.74592 4.27482C9.75681 4.27482 9.79162 4.24745 9.82331 4.214C9.855 4.18055 9.89136 4.15318 9.90412 4.15318C9.91689 4.15318 9.94367 4.13494 9.96361 4.11264C9.98355 4.09034 10.0081 4.07209 10.0182 4.07209C10.0283 4.07209 10.0743 4.04614 10.1203 4.01446C10.2202 3.94574 10.4727 3.82246 10.5849 3.78761C10.629 3.77393 10.6778 3.7525 10.6933 3.74004C10.7087 3.72755 10.7223 3.7209 10.7233 3.72528C10.7244 3.72966 10.8109 3.7121 10.9157 3.68627C11.129 3.63365 11.5222 3.6214 11.6673 3.66284C11.7114 3.67545 11.752 3.68477 11.7575 3.68358C11.7742 3.67995 11.9048 3.75591 11.9553 3.7987C12.0563 3.88427 12.1028 3.94499 12.1645 4.07209C12.2275 4.20188 12.2285 4.20812 12.2269 4.48767C12.2251 4.82036 12.1941 4.93644 12.0024 5.32897C11.9398 5.45719 11.8884 5.56666 11.8881 5.57223C11.8877 5.58263 11.8148 5.70212 11.7528 5.79427C11.7336 5.82268 11.7098 5.86452 11.6997 5.88728C11.6897 5.91005 11.6661 5.94155 11.6474 5.9573C11.6286 5.97307 11.5734 6.04567 11.5247 6.11865C11.476 6.19163 11.4048 6.2924 11.3663 6.34258C11.3279 6.39275 11.2906 6.44748 11.2834 6.46421C11.2762 6.48093 11.2571 6.51029 11.2408 6.52944C11.2245 6.5486 11.1813 6.62158 11.1447 6.69162C10.9059 7.14846 10.847 7.34307 10.8586 7.63626C10.8648 7.79086 10.8748 7.83114 10.9408 7.96694C11.0046 8.09808 11.0557 8.16119 11.2774 8.3824C11.4211 8.52585 11.5541 8.6492 11.573 8.65652C11.5918 8.66384 11.6382 8.70266 11.6762 8.7428C11.7142 8.78294 11.7549 8.81578 11.7667 8.81578C11.7925 8.81578 12.3721 9.3999 12.4054 9.45946C12.4184 9.48257 12.4582 9.54377 12.4941 9.59549C12.5299 9.6472 12.5592 9.69381 12.5592 9.69904C12.5592 9.70427 12.5819 9.74487 12.6096 9.78925C12.6372 9.83362 12.6539 9.86993 12.6465 9.86993C12.6392 9.86993 12.6474 9.88589 12.6649 9.90541C12.6824 9.92491 12.6965 9.9481 12.6964 9.95692C12.6963 9.96574 12.7548 10.0935 12.8264 10.2407C12.898 10.388 12.9897 10.586 13.0302 10.6808C13.0707 10.7756 13.1166 10.8819 13.1322 10.917C13.1477 10.9521 13.1605 10.9869 13.1605 10.9943C13.1605 11.0017 13.183 11.0576 13.2106 11.1186C13.2382 11.1795 13.2607 11.2383 13.2607 11.2493C13.2607 11.2603 13.2693 11.2851 13.2798 11.3045C13.2903 11.3238 13.3185 11.399 13.3425 11.4714C13.3664 11.5439 13.3942 11.6136 13.4042 11.6264C13.4143 11.6392 13.4203 11.6574 13.4178 11.667C13.413 11.6848 13.4315 11.7551 13.4597 11.8262C13.4686 11.8485 13.5098 11.9716 13.5513 12.0999C13.5929 12.2281 13.6386 12.3604 13.6531 12.3938C13.6676 12.4273 13.7121 12.555 13.7521 12.6776C13.8829 13.0784 13.9972 13.2763 14.247 13.5341C14.3253 13.615 14.4015 13.6811 14.4163 13.6811C14.4311 13.6811 14.4432 13.6891 14.4432 13.6989C14.4432 13.7138 14.813 13.9124 14.8441 13.9142C14.8496 13.9146 14.8632 13.9203 14.8742 13.9269C14.8852 13.9336 14.9213 13.9463 14.9543 13.9551C14.9874 13.964 15.0235 13.9737 15.0345 13.9767C15.5453 14.1154 15.6783 14.1313 16.4151 14.142C17.161 14.1528 17.2949 14.1379 17.9007 13.9766C18.0177 13.9454 18.0437 13.9374 18.061 13.9272C18.0721 13.9206 18.0901 13.9146 18.1011 13.9137C18.1539 13.9094 18.2556 13.872 18.4018 13.8031C18.49 13.7615 18.6018 13.7105 18.6502 13.6897C18.6987 13.669 18.7483 13.6423 18.7605 13.6304C18.7726 13.6185 18.8335 13.5838 18.8958 13.5532C18.958 13.5227 19.02 13.4842 19.0335 13.4678C19.047 13.4513 19.0669 13.4378 19.0778 13.4378C19.0886 13.4378 19.123 13.4173 19.1541 13.3922C19.1852 13.3671 19.2444 13.3192 19.2857 13.2858C19.327 13.2523 19.3683 13.225 19.3775 13.225C19.4024 13.225 19.7747 12.8493 19.7747 12.8242C19.7747 12.8122 19.7882 12.7874 19.8047 12.7689C19.8213 12.7504 19.8588 12.6904 19.8881 12.6355C19.9371 12.5438 19.9421 12.5122 19.9502 12.2447C19.9561 12.0495 19.9517 11.9464 19.937 11.9315C19.9249 11.9193 19.915 11.8798 19.915 11.8436C19.915 11.8075 19.9058 11.7721 19.8944 11.7651C19.8831 11.758 19.8756 11.7415 19.8777 11.7284C19.8827 11.697 19.8549 11.5933 19.8278 11.5424C19.8159 11.5201 19.8051 11.4973 19.8038 11.4917C19.8024 11.4861 19.796 11.4679 19.7895 11.4512C19.6953 11.2097 19.6343 10.9255 19.6349 10.7315C19.6355 10.5555 19.7152 10.2413 19.8162 10.0171C19.8375 9.96985 19.8549 9.91794 19.8549 9.90176C19.8549 9.88556 19.8641 9.86659 19.8753 9.85959C19.8865 9.85258 19.8908 9.839 19.885 9.82939C19.8791 9.81978 19.8835 9.80618 19.8947 9.79914C19.9059 9.79213 19.9335 9.74818 19.9561 9.70145C20.0087 9.59227 20.0559 9.51361 20.1938 9.30545C20.2554 9.21241 20.3156 9.11915 20.3275 9.09821C20.3549 9.04996 20.9258 8.47166 20.975 8.44235C20.9952 8.43031 21.0513 8.39335 21.0997 8.36018C21.1481 8.32702 21.2091 8.2882 21.2353 8.27395C21.6279 8.05973 21.9031 7.98416 22.2866 7.98527C22.4468 7.98574 22.5212 7.99401 22.5476 8.01428C22.568 8.02989 22.5964 8.0381 22.6107 8.03252C22.6251 8.02695 22.6428 8.03214 22.6501 8.04406C22.6573 8.05596 22.682 8.06571 22.7048 8.06571C22.8067 8.06571 23.0777 8.28195 23.1588 8.42801C23.2134 8.52656 23.2418 8.66901 23.2419 8.84619C23.242 8.99671 23.2317 9.05755 23.1835 9.19382C23.1264 9.35526 22.8506 9.92256 22.82 9.9417C22.8115 9.94699 22.7707 10.022 22.7293 10.1083C22.6879 10.1946 22.6424 10.2792 22.6282 10.2963C22.614 10.3134 22.5689 10.3952 22.5279 10.4781C22.4869 10.5611 22.4342 10.6574 22.4109 10.6922C22.3481 10.7857 22.0596 11.3816 22.0596 11.4177C22.0596 11.4348 22.0516 11.4538 22.0418 11.4599C22.0049 11.483 21.9548 11.756 21.9631 11.8884C21.9712 12.0161 21.9748 12.0237 22.0749 12.125C22.175 12.2263 22.1826 12.2299 22.3089 12.238C22.4397 12.2465 22.7097 12.1957 22.7324 12.1585C22.7385 12.1485 22.7577 12.1404 22.7751 12.1404C22.8119 12.1404 23.2741 11.9139 23.3925 11.8379C23.4366 11.8096 23.4872 11.7772 23.5049 11.7658C23.5226 11.7544 23.5767 11.7179 23.6251 11.6847C23.6736 11.6515 23.7277 11.615 23.7454 11.6036C23.8612 11.5293 23.9379 11.4725 23.9615 11.4438C23.9764 11.4255 23.9992 11.4106 24.012 11.4106C24.0249 11.4106 24.0798 11.365 24.1341 11.3093C24.1884 11.2535 24.243 11.2079 24.2555 11.2079C24.268 11.2079 24.3224 11.1623 24.3765 11.1066C24.4306 11.0508 24.4845 11.0052 24.4963 11.0052C24.5257 11.0052 25.2508 10.2683 25.2682 10.2208C25.2758 10.1999 25.2966 10.1705 25.3144 10.1556C25.3322 10.1407 25.3467 10.1174 25.3467 10.1037C25.3467 10.0901 25.3647 10.0624 25.3868 10.0422C25.4088 10.0221 25.4269 9.99471 25.4269 9.98143C25.4269 9.96815 25.4449 9.94078 25.467 9.92061C25.489 9.90044 25.5071 9.87307 25.5071 9.8598C25.5071 9.84652 25.5251 9.81915 25.5471 9.79898C25.5692 9.77881 25.5872 9.74546 25.5872 9.72488C25.5872 9.70431 25.5962 9.68748 25.6073 9.68748C25.6183 9.68748 25.6273 9.67491 25.6273 9.65955C25.6273 9.6442 25.6413 9.6199 25.6584 9.60556C25.6755 9.59123 25.7066 9.54142 25.7275 9.4949C25.7485 9.44837 25.7796 9.39856 25.7967 9.38423C25.8138 9.3699 25.8277 9.34742 25.8277 9.33426C25.8277 9.28423 25.9889 9.06417 26.1111 8.94724C26.3477 8.72097 26.6318 8.62137 26.9051 8.66887C27.1221 8.70659 27.2933 8.81008 27.3642 8.94652C27.5203 9.24699 27.5388 9.31626 27.5374 9.59626C27.5356 9.94028 27.4723 10.149 27.2226 10.6335C27.193 10.6912 27.1556 10.7493 27.1396 10.7627C27.1236 10.7762 27.1105 10.7983 27.1105 10.8119C27.1105 10.8256 27.0925 10.8532 27.0704 10.8734C27.0484 10.8936 27.0303 10.9207 27.0303 10.9336C27.0303 10.9465 27.0033 10.9833 26.9702 11.0153C26.9371 11.0474 26.9101 11.0837 26.9101 11.0961C26.9101 11.1085 26.874 11.1542 26.8299 11.1978C26.7858 11.2413 26.7497 11.2857 26.7497 11.2963C26.7497 11.3158 26.6665 11.4145 26.434 11.671C26.3652 11.747 26.3086 11.8176 26.3084 11.8278C26.3081 11.8381 26.236 11.9194 26.148 12.0086C26.0601 12.0978 25.9881 12.1786 25.9881 12.1882C25.9881 12.1978 25.8731 12.3237 25.7325 12.468C25.592 12.6123 25.4744 12.7413 25.4712 12.7547C25.4679 12.768 25.3755 12.87 25.2657 12.9812C25.1559 13.0923 25.0661 13.1929 25.0661 13.2046C25.0661 13.2163 24.9849 13.3075 24.8857 13.4074C24.7865 13.5073 24.7052 13.5983 24.7051 13.6097C24.7049 13.6211 24.6328 13.7032 24.5447 13.7922C24.4567 13.8811 24.3846 13.9636 24.3846 13.9756C24.3846 13.9875 24.3486 14.0329 24.3045 14.0764C24.2604 14.12 24.2243 14.1641 24.2243 14.1745C24.2243 14.185 24.1905 14.2327 24.1491 14.2806C24.0449 14.4013 23.9838 14.4849 23.9838 14.5066C23.9838 14.5167 23.9567 14.5512 23.9236 14.5832C23.8906 14.6153 23.8635 14.652 23.8635 14.6649C23.8635 14.6779 23.8455 14.7049 23.8234 14.7251C23.8014 14.7453 23.7833 14.773 23.7833 14.7866C23.7833 14.8002 23.7694 14.8231 23.7523 14.8374C23.7352 14.8518 23.7037 14.9025 23.6822 14.9502C23.6607 14.9979 23.6335 15.0429 23.6218 15.0502C23.6032 15.0619 23.5601 15.1532 23.56 15.1812C23.56 15.1868 23.548 15.2051 23.5332 15.2218C23.5036 15.2555 23.4405 15.4408 23.3916 15.6382C23.3653 15.7442 23.3618 15.8409 23.3716 16.1886C23.39 16.8433 23.4034 17.075 23.4238 17.0959C23.4342 17.1065 23.4426 17.1698 23.4426 17.2366C23.4426 17.3034 23.4514 17.4088 23.4621 17.4708C23.4727 17.5328 23.4917 17.6519 23.5042 17.7355C23.5766 18.2193 23.7703 19.0768 23.9164 19.56C23.9848 19.7865 24.2336 20.553 24.2585 20.6142C24.2654 20.6309 24.2725 20.6491 24.2744 20.6547C24.2763 20.6603 24.2832 20.6785 24.2897 20.6953C24.2962 20.712 24.3213 20.785 24.3454 20.8574C24.3696 20.9299 24.3973 20.9979 24.407 21.0085C24.4167 21.0191 24.425 21.0419 24.4253 21.0592C24.4257 21.0764 24.4528 21.1451 24.4855 21.2117C24.5182 21.2783 24.5453 21.3422 24.5456 21.3536C24.546 21.365 24.573 21.4289 24.6057 21.4955C24.6385 21.5621 24.6652 21.6235 24.6652 21.632C24.6652 21.6404 24.7329 21.7893 24.8156 21.9629C24.8982 22.1365 24.9659 22.2872 24.9659 22.2978C24.9659 22.3084 24.9749 22.317 24.9859 22.317C24.997 22.317 25.006 22.3299 25.006 22.3455C25.006 22.3612 25.0236 22.4091 25.0451 22.452C25.0667 22.4948 25.1027 22.5727 25.1253 22.625C25.1478 22.6773 25.1746 22.7253 25.1849 22.7317C25.1952 22.7382 25.2496 22.8382 25.3058 22.954C25.362 23.0698 25.4283 23.1951 25.4532 23.2324C25.478 23.2697 25.5136 23.3332 25.5324 23.3735C25.5511 23.4137 25.5801 23.4582 25.5969 23.4723C25.6136 23.4863 25.6273 23.5068 25.6273 23.5177C25.6273 23.5287 25.6544 23.5782 25.6874 23.6277C25.7205 23.6773 25.7476 23.7229 25.7476 23.7291C25.7476 23.7353 25.7746 23.7809 25.8077 23.8305C25.8408 23.88 25.8678 23.9278 25.8678 23.9367C25.8678 23.9455 25.8859 23.9693 25.9079 23.9895C25.93 24.0097 25.948 24.037 25.948 24.0503C25.948 24.0636 25.966 24.091 25.9881 24.1111C26.0101 24.1313 26.0282 24.1587 26.0282 24.1719C26.0282 24.1852 26.0462 24.2126 26.0683 24.2328C26.0903 24.2529 26.1083 24.28 26.1083 24.2928C26.1083 24.3171 26.4258 24.6483 26.4491 24.6483C26.4688 24.6483 26.7497 24.3515 26.7497 24.3307C26.7497 24.3208 26.7855 24.2765 26.8292 24.2322C26.873 24.1879 26.9091 24.142 26.9094 24.1301C26.9098 24.1183 26.9371 24.0824 26.9702 24.0503C27.0033 24.0183 27.0303 23.9818 27.0303 23.9692C27.0303 23.9567 27.0574 23.9202 27.0905 23.8881C27.1235 23.8561 27.1506 23.822 27.1506 23.8123C27.1506 23.8026 27.1776 23.7656 27.2106 23.7299C27.2437 23.6943 27.2707 23.6551 27.2708 23.6429C27.2708 23.6307 27.2889 23.6042 27.3109 23.5841C27.333 23.5639 27.351 23.5365 27.351 23.5232C27.351 23.51 27.3691 23.4826 27.3911 23.4624C27.4132 23.4422 27.4312 23.4142 27.4312 23.4001C27.4312 23.3861 27.4393 23.3715 27.4492 23.3678C27.471 23.3596 27.6717 23.0551 27.6717 23.0302C27.6717 23.0205 27.6898 22.9961 27.7118 22.9759C27.7338 22.9557 27.7519 22.9319 27.7519 22.9231C27.7519 22.9142 27.7789 22.8664 27.812 22.8169C27.8451 22.7673 27.8721 22.7178 27.8721 22.7068C27.8721 22.6959 27.8861 22.6752 27.9032 22.6608C27.9203 22.6465 27.9518 22.5958 27.9733 22.5481C27.9948 22.5004 28.0208 22.4561 28.0311 22.4496C28.0415 22.4432 28.0746 22.3856 28.1048 22.3217C28.135 22.2578 28.172 22.1907 28.1871 22.1726C28.2115 22.1433 28.5009 21.5636 28.4968 21.5522C28.4959 21.5497 28.5242 21.495 28.5598 21.4306C28.5954 21.3662 28.6546 21.2452 28.6914 21.1615C28.7282 21.0779 28.7934 20.9351 28.8363 20.8442C28.8793 20.7533 28.9144 20.6707 28.9144 20.6605C28.9144 20.6504 28.9324 20.6043 28.9545 20.5581C28.9765 20.512 28.9946 20.4619 28.9946 20.4469C28.9946 20.4319 29.003 20.4109 29.0133 20.4003C29.0653 20.3466 29.5122 18.9104 29.6121 18.4755C29.7285 17.9688 29.757 17.8355 29.7765 17.7051C29.7881 17.6271 29.8061 17.513 29.8163 17.4517C29.8266 17.3904 29.8444 17.2776 29.856 17.2011C29.8675 17.1245 29.8806 17.0558 29.8852 17.0484C29.8897 17.041 29.8954 16.9713 29.8978 16.8936C29.9002 16.8159 29.909 16.7432 29.9172 16.7321C29.9333 16.7105 29.9466 16.5716 29.9796 16.0834C30.0022 15.7488 30.0076 14.3512 29.9878 13.9345C29.9809 13.7896 29.9671 13.6527 29.9572 13.6304C29.9472 13.6081 29.934 13.5078 29.9278 13.4074C29.9153 13.2048 29.8904 12.986 29.8579 12.7942C29.82 12.5711 29.7982 12.4376 29.7775 12.3026C29.7065 11.8385 29.4766 10.9416 29.2708 10.3261C29.2261 10.1923 29.1892 10.0714 29.1889 10.0575C29.1886 10.0435 29.1808 10.0321 29.1716 10.0321C29.1624 10.0321 29.1569 10.0253 29.1594 10.0169C29.1668 9.99187 29.1107 9.80893 29.092 9.79726C29.0825 9.79132 29.0747 9.77287 29.0747 9.75627C29.0747 9.73966 29.0567 9.68831 29.0346 9.64215C29.0126 9.59599 28.9946 9.55038 28.9946 9.54079C28.9946 9.53121 28.9765 9.48559 28.9545 9.43943C28.9324 9.39327 28.9141 9.34582 28.9138 9.33398C28.9134 9.32214 28.8863 9.25794 28.8536 9.19132C28.8209 9.12471 28.7941 9.0633 28.7941 9.05487C28.7941 9.03652 28.5159 8.44715 28.4325 8.2887C28.4002 8.22738 28.3281 8.084 28.2724 7.97005C28.2166 7.85612 28.1627 7.75769 28.1525 7.75133C28.1423 7.74498 28.1064 7.68119 28.0726 7.60959C28.0388 7.53798 28.0024 7.47392 27.9917 7.46724C27.981 7.46057 27.9547 7.41609 27.9332 7.36841C27.9117 7.32073 27.8802 7.26999 27.8631 7.25565C27.846 7.24132 27.8321 7.22056 27.8321 7.20954C27.8321 7.19851 27.7689 7.09384 27.6918 6.97693C27.6146 6.86002 27.5515 6.75755 27.5515 6.7492C27.5515 6.74086 27.5334 6.71751 27.5114 6.69734C27.4893 6.67717 27.4713 6.6498 27.4713 6.63652C27.4713 6.62324 27.4532 6.59588 27.4312 6.57571C27.4091 6.55553 27.3911 6.52845 27.3911 6.51554C27.3911 6.50262 27.364 6.46585 27.331 6.4338C27.2979 6.40175 27.2708 6.36498 27.2708 6.35206C27.2708 6.33915 27.2528 6.31207 27.2308 6.2919C27.2087 6.27172 27.1907 6.24464 27.1907 6.23173C27.1907 6.21881 27.1636 6.18204 27.1305 6.14999C27.0975 6.11794 27.0704 6.08145 27.0704 6.0689C27.0704 6.05635 27.0434 6.01986 27.0103 5.98781C26.9772 5.95576 26.9502 5.92075 26.9502 5.91001C26.9502 5.89146 26.9036 5.83449 26.6846 5.58539C26.6322 5.52583 26.5894 5.4685 26.5894 5.45802C26.5894 5.44752 26.5443 5.39402 26.4892 5.3391C26.434 5.28419 26.389 5.22899 26.389 5.21642C26.389 5.18733 24.9666 3.74784 24.9375 3.74745C24.9255 3.74731 24.8628 3.69258 24.798 3.62582C24.7332 3.55909 24.6726 3.50447 24.6632 3.50447C24.6538 3.50447 24.5989 3.45886 24.5411 3.40311C24.4833 3.34736 24.4277 3.30175 24.4176 3.30175C24.4074 3.30175 24.3605 3.26755 24.3133 3.22573C24.2662 3.18393 24.1903 3.12234 24.1447 3.08889C24.0991 3.05544 24.0318 3.00298 23.9951 2.97233C23.9584 2.94166 23.9199 2.91658 23.9095 2.91658C23.8991 2.91658 23.8694 2.89377 23.8435 2.8659C23.8176 2.83803 23.7879 2.81522 23.7775 2.81522C23.7671 2.81522 23.7284 2.79012 23.6915 2.75947C23.5681 2.65687 23.5066 2.6125 23.4876 2.6125C23.4773 2.6125 23.4525 2.59425 23.4326 2.57195C23.4126 2.54965 23.3853 2.53141 23.3718 2.53141C23.3583 2.53141 23.3359 2.51756 23.3221 2.50064C23.3082 2.48369 23.2665 2.45529 23.2294 2.43751C23.1923 2.41971 23.162 2.39707 23.162 2.38719C23.162 2.37732 23.1496 2.36923 23.1344 2.36923C23.1192 2.36923 23.0954 2.35539 23.0815 2.33846C23.0676 2.32151 23.0237 2.29248 22.9839 2.27391C22.9441 2.25536 22.8738 2.21447 22.8277 2.18307C22.7816 2.15167 22.7392 2.12597 22.7335 2.12597C22.7278 2.12597 22.683 2.0986 22.634 2.06515C22.585 2.0317 22.5379 2.00433 22.5293 2.00433C22.5208 2.00433 22.4995 1.99134 22.4821 1.97544C22.4647 1.95955 22.3828 1.91126 22.3002 1.86816C22.2175 1.82505 22.1138 1.76686 22.0697 1.73887C21.9677 1.6741 21.6697 1.52654 21.6659 1.53888C21.6643 1.54401 21.6462 1.53377 21.6258 1.51614C21.585 1.48091 21.4537 1.41644 21.4227 1.41644C21.412 1.41644 21.2984 1.36627 21.1704 1.30494C21.0423 1.24362 20.9324 1.19345 20.9261 1.19345C20.9198 1.19345 20.8633 1.16961 20.8006 1.14045C20.738 1.1113 20.6777 1.08572 20.6666 1.08359C20.6556 1.08148 20.6195 1.06551 20.5865 1.04811C20.5534 1.03072 20.4767 1.00035 20.4161 0.980649C20.3555 0.960944 20.2968 0.937712 20.2858 0.929056C20.2669 0.914177 19.4983 0.649645 19.434 0.63586C19.4175 0.632333 19.3769 0.618811 19.3438 0.605857C19.3107 0.592903 19.2476 0.57482 19.2035 0.565678C19.1594 0.556535 18.9249 0.498354 18.6824 0.436402C18.2552 0.327277 17.8477 0.237411 17.6 0.197697C17.5339 0.187075 17.4257 0.169134 17.3595 0.157802C17.1199 0.116751 16.7834 0.0742399 16.3874 0.0350335C16.1728 0.0137883 13.8782 -0.0122412 13.8598 0.00636867ZM14.4533 16.1723C14.3761 16.1916 14.2927 16.2186 14.2679 16.2323C14.2431 16.2459 14.2228 16.2521 14.2228 16.2459C14.2228 16.2305 14.0424 16.3242 13.9487 16.3883C13.8426 16.4609 13.5614 16.7391 13.5614 16.7715C13.5614 16.7861 13.5477 16.8095 13.5309 16.8236C13.5142 16.8376 13.4856 16.8821 13.4674 16.9224C13.4493 16.9626 13.4232 17.0093 13.4096 17.026C13.3507 17.0982 13.1839 17.572 13.1292 17.8226C13.1116 17.9029 13.0896 18.0006 13.0802 18.0396C13.0245 18.2715 12.9591 18.7661 12.9208 19.2458C12.8521 20.1044 12.8448 22.2941 12.9012 25.1045C12.9282 26.4506 12.9865 27.3129 13.0888 27.8818C13.1995 28.4976 13.3565 29.0061 13.5114 29.2501C13.522 29.2668 13.5308 29.2875 13.531 29.2961C13.5315 29.3216 13.9087 29.6961 13.934 29.6961C13.9468 29.6961 13.9677 29.7088 13.9805 29.7243C13.9989 29.7468 14.3227 29.9212 14.3631 29.9305C14.3686 29.9317 14.3882 29.9395 14.4066 29.9478C14.425 29.956 14.4541 29.9648 14.4712 29.9674C14.4882 29.9699 14.5085 29.9783 14.5162 29.9861C14.5368 30.0069 16.1026 30.0033 16.1153 29.9824C16.1213 29.9726 16.2125 29.9631 16.3178 29.9613C16.4232 29.9595 16.5321 29.9492 16.56 29.9385C16.5878 29.9279 16.6612 29.9191 16.7233 29.9191C16.7852 29.9191 16.8861 29.9103 16.9474 29.8994C17.0087 29.8886 17.1265 29.8696 17.2092 29.8572C17.2919 29.8447 17.4001 29.827 17.4497 29.8177C17.4993 29.8085 17.6076 29.7903 17.6902 29.7773C17.7729 29.7643 17.9172 29.7366 18.0109 29.7158C18.1046 29.695 18.2715 29.6582 18.3817 29.6342C18.594 29.5878 18.6283 29.5746 18.8295 29.4618C19.0182 29.356 19.1645 29.2406 19.3405 29.0584C19.5161 28.8768 19.5538 28.8133 19.6002 28.6217C19.6787 28.298 19.6881 27.8464 19.635 26.9492C19.6181 26.6627 19.6066 26.5206 19.564 26.0674C19.5222 25.6225 19.4626 25.0739 19.4331 24.8612C19.4148 24.7291 19.3956 24.5764 19.3633 24.3037C19.3561 24.2424 19.3096 23.8957 19.2601 23.5334C19.2105 23.171 19.1624 22.8103 19.1531 22.7319C19.1438 22.6534 19.1309 22.5667 19.1243 22.5393C19.1177 22.5118 19.1088 22.4483 19.1045 22.3981C19.1001 22.348 19.086 22.243 19.0731 22.165C19.0601 22.087 19.0421 21.9684 19.0331 21.9015C19.0241 21.8346 19.0066 21.716 18.9941 21.6379C18.9817 21.5599 18.9631 21.4284 18.9528 21.3457C18.9426 21.2631 18.9207 21.1171 18.9042 21.0214C18.8556 20.7386 18.8084 20.4313 18.7911 20.2846C18.7822 20.2092 18.7614 20.0678 18.7449 19.9704C18.7283 19.8729 18.7048 19.7202 18.6926 19.631C18.6804 19.5418 18.6623 19.4232 18.6522 19.3674C18.5929 19.0384 18.5483 18.8138 18.5336 18.7694C18.5243 18.7415 18.5054 18.6777 18.4918 18.6275C18.4781 18.5773 18.436 18.4451 18.3982 18.3336C18.3604 18.2221 18.3273 18.1217 18.3246 18.1106C18.3219 18.0994 18.3072 18.0675 18.292 18.0396C18.2301 17.9261 18.1527 17.7743 18.1497 17.7604C18.1389 17.7115 18.1111 17.6593 18.0832 17.6359C18.0655 17.6211 18.051 17.5981 18.051 17.5848C18.051 17.5715 18.024 17.5345 17.9909 17.5024C17.9578 17.4704 17.9308 17.434 17.9308 17.4217C17.9308 17.3921 17.4816 16.9401 17.4347 16.9226C17.4146 16.9151 17.3862 16.8942 17.3714 16.8762C17.3567 16.8583 17.3336 16.8436 17.3201 16.8436C17.3066 16.8436 17.2793 16.8253 17.2593 16.803C17.2394 16.7807 17.212 16.7625 17.1985 16.7625C17.185 16.7625 17.162 16.7478 17.1473 16.73C17.1255 16.7033 17.0728 16.6733 17.0088 16.6509C16.9675 16.6364 16.8138 16.5585 16.801 16.5455C16.7922 16.5366 16.7789 16.5285 16.7716 16.5276C16.7569 16.5257 16.7395 16.5191 16.5478 16.4436C16.4761 16.4154 16.3859 16.3838 16.3473 16.3735C16.3088 16.3632 16.2501 16.3469 16.2171 16.3374C16.0178 16.2799 15.7571 16.2159 15.6358 16.1948C15.5586 16.1814 15.4522 16.1622 15.3993 16.1522C15.227 16.1196 14.6109 16.1327 14.4533 16.1723ZM9.36137 21.8964C9.3177 21.9438 9.26208 22.0236 9.23781 22.0738C8.93353 22.7025 8.75216 24.513 8.83113 26.1333C8.85452 26.6131 8.8813 26.9102 8.95129 27.4662C9.00769 27.9142 9.15305 28.4863 9.28407 28.7761C9.3336 28.8856 9.41301 28.9663 9.47125 28.9663C9.48961 28.9663 9.5132 28.9744 9.52366 28.9842C9.53415 28.9941 9.60133 29.0222 9.67299 29.0467C9.74464 29.0712 9.83325 29.105 9.86989 29.1217C9.90655 29.1384 9.96265 29.1554 9.99456 29.1595C10.0265 29.1636 10.0703 29.1765 10.092 29.1883C10.1136 29.2 10.1399 29.2096 10.1503 29.2096C10.1858 29.2096 10.2973 29.0782 10.3379 28.9884C10.3998 28.8518 10.4723 28.5386 10.5 28.2888C10.5332 27.9888 10.5311 26.6124 10.4968 26.1485C10.426 25.1921 10.3794 24.6901 10.3339 24.3949C10.3218 24.3169 10.3039 24.1892 10.2941 24.1111C10.2689 23.9118 10.2456 23.7687 10.1755 23.3813C10.1634 23.3144 10.1484 23.2278 10.1423 23.1887C10.1361 23.1497 10.1258 23.1041 10.1195 23.0874C10.1131 23.0707 10.1049 23.0387 10.1012 23.0164C10.0791 22.8839 9.99139 22.5694 9.92028 22.3677C9.89276 22.2897 9.8678 22.2167 9.86484 22.2055C9.85135 22.155 9.82479 22.1013 9.79711 22.0687C9.78054 22.0492 9.77485 22.0332 9.78445 22.0332C9.79405 22.0332 9.7529 21.9831 9.69303 21.9217C9.60141 21.8279 9.57281 21.8102 9.51248 21.8102C9.45399 21.8102 9.42621 21.8261 9.36137 21.8964ZM21.7808 22.2217C21.6859 22.3208 21.6583 22.369 21.6018 22.5342C21.5645 22.6434 21.5484 22.7153 21.4997 22.9911C21.3934 23.5926 21.4365 24.8534 21.5978 25.8647C21.633 26.0854 21.6551 26.2146 21.6757 26.3205C21.6866 26.376 21.6915 26.4279 21.6868 26.4356C21.682 26.4434 21.6873 26.4555 21.6985 26.4625C21.7097 26.4695 21.7189 26.5051 21.7189 26.5416C21.7189 26.5781 21.7249 26.6141 21.7322 26.6215C21.7396 26.6289 21.7481 26.659 21.7512 26.6885C21.7543 26.7179 21.7632 26.7567 21.771 26.7747C21.7788 26.7926 21.7864 26.8165 21.7878 26.8276C21.7908 26.8501 21.8178 26.945 21.8944 27.2026C21.9661 27.4438 22.1423 27.8059 22.2294 27.8913C22.2943 27.9549 22.3139 27.9623 22.4368 27.9693C22.5434 27.9754 22.5782 27.9701 22.5991 27.9446C22.6138 27.9268 22.6346 27.9122 22.6454 27.9122C22.6563 27.9122 22.7052 27.8848 22.7542 27.8513C22.8032 27.8179 22.8483 27.7905 22.8544 27.7905C22.8606 27.7905 22.9057 27.7632 22.9547 27.7297C23.0037 27.6963 23.0509 27.6689 23.0597 27.6689C23.0684 27.6689 23.092 27.6507 23.1119 27.6284C23.1318 27.6061 23.1589 27.5878 23.172 27.5878C23.1852 27.5878 23.2122 27.5696 23.2322 27.5473C23.2521 27.525 23.2792 27.5067 23.2923 27.5067C23.3054 27.5067 23.3325 27.4885 23.3524 27.4662C23.3724 27.4439 23.3994 27.4256 23.4125 27.4256C23.4257 27.4256 23.4527 27.4074 23.4727 27.3851C23.4926 27.3628 23.5197 27.3445 23.5328 27.3445C23.5459 27.3445 23.573 27.3263 23.5929 27.304C23.6129 27.2817 23.6398 27.2635 23.6527 27.2635C23.6656 27.2635 23.6979 27.2401 23.7244 27.2115C23.751 27.1829 23.8022 27.1453 23.8382 27.1281C23.8742 27.1108 23.9036 27.0886 23.9036 27.0787C23.9036 27.0688 23.9153 27.0607 23.9296 27.0607C23.9439 27.0607 23.9908 27.0242 24.0339 26.9796C24.0769 26.935 24.1223 26.8986 24.1347 26.8986C24.2215 26.8986 24.3443 26.5663 24.3595 26.2904C24.3672 26.151 24.359 26.0755 24.3164 25.8951C24.2617 25.6636 24.139 25.2508 24.0935 25.145C24.079 25.1116 24.0471 25.0251 24.0226 24.9528C23.998 24.8805 23.9611 24.7913 23.9407 24.7545C23.9203 24.7177 23.9036 24.6779 23.9036 24.666C23.9036 24.6299 23.5951 23.9838 23.4519 23.72C23.3614 23.5533 23.3418 23.5131 23.347 23.5048C23.35 23.5 23.3326 23.4747 23.3083 23.4486C23.284 23.4224 23.2507 23.3685 23.2343 23.3288C23.2178 23.289 23.1904 23.2447 23.1732 23.2303C23.156 23.2159 23.142 23.1929 23.142 23.1793C23.142 23.1656 23.1239 23.138 23.1019 23.1178C23.0798 23.0976 23.0618 23.0703 23.0618 23.057C23.0618 23.0437 23.0438 23.0163 23.0217 22.9962C22.9997 22.976 22.9816 22.9489 22.9816 22.936C22.9816 22.9231 22.9546 22.8863 22.9215 22.8543C22.8884 22.8222 22.8614 22.7859 22.8614 22.7737C22.8614 22.7473 22.365 22.236 22.3395 22.236C22.3298 22.236 22.2887 22.2131 22.2481 22.1853C22.1851 22.142 22.1516 22.1346 22.0193 22.1346H21.8643L21.7808 22.2217Z"
          fill="#FF0000"/>
</svg>
