<svg width="30" height="30" viewBox="0 0 30 30" fill="none" xmlns="http://www.w3.org/2000/svg">
    <path
        d="M8.625 25.75L9.01087 25.1069C8.83287 25.0001 8.61856 24.9718 8.41896 25.0289L8.625 25.75ZM4.125 21.25L4.85087 21.4387C4.89824 21.2565 4.87536 21.0632 4.78676 20.8971L4.125 21.25ZM2.94044 25.806L3.66631 25.9947L2.94044 25.806ZM4.18299 27.0191L3.97695 26.298L4.18299 27.0191ZM8.23913 26.3931C10.232 27.5889 12.6156 28.25 15 28.25V26.75C12.8844 26.75 10.768 26.1611 9.01087 25.1069L8.23913 26.3931ZM15 28.25C22.2892 28.25 28.25 22.2892 28.25 15H26.75C26.75 21.4608 21.4608 26.75 15 26.75V28.25ZM28.25 15C28.25 7.71079 22.2892 1.75 15 1.75V3.25C21.4608 3.25 26.75 8.53921 26.75 15H28.25ZM15 1.75C7.71079 1.75 1.75 7.71079 1.75 15H3.25C3.25 8.53921 8.53921 3.25 15 3.25V1.75ZM1.75 15C1.75 17.3905 2.41408 19.6358 3.46324 21.6029L4.78676 20.8971C3.83592 19.1142 3.25 17.1095 3.25 15H1.75ZM3.39913 21.0613L2.21458 25.6173L3.66631 25.9947L4.85087 21.4387L3.39913 21.0613ZM4.38903 27.7403L8.83104 26.4711L8.41896 25.0289L3.97695 26.298L4.38903 27.7403ZM2.21458 25.6173C1.87381 26.9279 3.08692 28.1123 4.38903 27.7403L3.97695 26.298C3.79093 26.3512 3.61763 26.1819 3.66631 25.9947L2.21458 25.6173Z"
        fill="#03B113"/>
    <path
        d="M20.625 18.5606C20.625 18.7631 20.5799 18.9713 20.4842 19.1738C20.3884 19.3763 20.2645 19.5675 20.1011 19.7475C19.8251 20.0513 19.5208 20.2706 19.1772 20.4113C18.8392 20.5519 18.473 20.625 18.0787 20.625C17.5041 20.625 16.89 20.49 16.2422 20.2144C15.5943 19.9388 14.9465 19.5675 14.3043 19.1006C13.6564 18.6281 13.0424 18.105 12.4565 17.5256C11.8763 16.9406 11.3523 16.3275 10.8848 15.6863C10.4228 15.045 10.051 14.4038 9.78061 13.7681C9.5102 13.1269 9.375 12.5137 9.375 11.9287C9.375 11.5462 9.4426 11.1806 9.5778 10.8431C9.71301 10.5 9.92708 10.185 10.2257 9.90375C10.5862 9.54938 10.9805 9.375 11.3974 9.375C11.5551 9.375 11.7129 9.40875 11.8537 9.47625C12.0002 9.54375 12.1298 9.645 12.2312 9.79125L13.5381 11.6306C13.6395 11.7713 13.7128 11.9006 13.7635 12.0244C13.8142 12.1425 13.8423 12.2606 13.8423 12.3675C13.8423 12.5025 13.8029 12.6375 13.724 12.7669C13.6508 12.8962 13.5438 13.0312 13.4086 13.1662L12.9804 13.6106C12.9184 13.6725 12.8903 13.7456 12.8903 13.8356C12.8903 13.8806 12.8959 13.92 12.9072 13.965C12.9241 14.01 12.941 14.0437 12.9522 14.0775C13.0536 14.2631 13.2283 14.505 13.4762 14.7975C13.7297 15.09 14.0001 15.3881 14.293 15.6863C14.5972 15.9844 14.8901 16.26 15.1887 16.5131C15.4817 16.7606 15.7239 16.9294 15.9154 17.0306C15.9436 17.0419 15.9774 17.0587 16.0168 17.0756C16.0619 17.0925 16.107 17.0981 16.1577 17.0981C16.2534 17.0981 16.3267 17.0644 16.3886 17.0025L16.8168 16.5806C16.9576 16.44 17.0928 16.3331 17.2224 16.2656C17.352 16.1869 17.4815 16.1475 17.6224 16.1475C17.7294 16.1475 17.8421 16.17 17.966 16.2206C18.0899 16.2713 18.2195 16.3444 18.3604 16.44L20.225 17.7619C20.3715 17.8631 20.4729 17.9812 20.5349 18.1219C20.5912 18.2625 20.625 18.4031 20.625 18.5606Z"
        stroke="#03B113" stroke-width="1.5" stroke-miterlimit="10"/>
</svg>
