<svg width="20" height="20" viewBox="0 0 20 20" fill="none" xmlns="http://www.w3.org/2000/svg">
<path d="M8.33333 18.3334H11.6667C15.8333 18.3334 17.5 16.6667 17.5 12.5V7.50002C17.5 3.33335 15.8333 1.66669 11.6667 1.66669H8.33333C4.16667 1.66669 2.5 3.33335 2.5 7.50002V12.5C2.5 16.6667 4.16667 18.3334 8.33333 18.3334Z" stroke="#3E6CED" stroke-width="1.5" stroke-linecap="round" stroke-linejoin="round"/>
<path d="M13.75 6.31665V7.14998C13.75 7.83332 13.1917 8.39998 12.5 8.39998H7.5C6.81667 8.39998 6.25 7.84165 6.25 7.14998V6.31665C6.25 5.63332 6.80833 5.06665 7.5 5.06665H12.5C13.1917 5.06665 13.75 5.62498 13.75 6.31665Z" stroke="#3E6CED" stroke-width="1.5" stroke-linecap="round" stroke-linejoin="round"/>
<path d="M6.7801 11.6667H6.78973" stroke="#3E6CED" stroke-width="2" stroke-linecap="round" stroke-linejoin="round"/>
<path d="M9.99604 11.6667H10.0057" stroke="#3E6CED" stroke-width="2" stroke-linecap="round" stroke-linejoin="round"/>
<path d="M13.212 11.6667H13.2216" stroke="#3E6CED" stroke-width="2" stroke-linecap="round" stroke-linejoin="round"/>
<path d="M6.7801 14.5834H6.78973" stroke="#3E6CED" stroke-width="2" stroke-linecap="round" stroke-linejoin="round"/>
<path d="M9.99604 14.5834H10.0057" stroke="#3E6CED" stroke-width="2" stroke-linecap="round" stroke-linejoin="round"/>
<path d="M13.212 14.5834H13.2216" stroke="#3E6CED" stroke-width="2" stroke-linecap="round" stroke-linejoin="round"/>
</svg>
