<svg width="20" height="14" viewBox="0 0 20 14" fill="none" xmlns="http://www.w3.org/2000/svg">
<path d="M19.6551 0H0.344843C0.154414 0 0 0.154375 0 0.344804V12.7586C0 12.949 0.154414 13.1034 0.344843 13.1034H19.6552C19.8456 13.1034 20 12.949 20 12.7586V0.344804C20 0.154375 19.8455 0 19.6551 0Z" fill="#82C3D2"/>
<path d="M2.32484 1.56918C2.29363 1.43703 2.28586 1.38832 2.34515 1.32906C2.37406 1.30015 2.37406 1.25332 2.34515 1.22441C2.31625 1.19551 2.26941 1.19551 2.2405 1.22441C2.1205 1.34445 2.14914 1.46902 2.18019 1.60093C2.08558 1.57004 1.98746 1.59297 1.93488 1.65929C1.90879 1.69238 1.85832 1.78519 1.95289 1.93339C1.97488 1.96781 2.02035 1.97793 2.05507 1.95613C2.08957 1.93414 2.09961 1.88832 2.07761 1.85394C2.04214 1.79812 2.04109 1.76371 2.05101 1.75113C2.06273 1.73625 2.09906 1.7284 2.13711 1.74187C2.16168 1.75039 2.21879 1.77988 2.21879 1.86894C2.21879 1.94007 2.18589 2.00527 2.12855 2.04761C2.07109 2.09011 1.99672 2.10211 1.92504 2.07984C1.83652 2.05281 1.77468 1.95957 1.77468 1.85304C1.77468 1.77683 1.79101 1.6998 1.82101 1.6323C1.82578 1.62234 1.9389 1.38801 1.96804 1.30066C2.02566 1.12789 1.96711 1.04101 1.92714 1.00472C1.87367 0.956014 1.7955 0.943865 1.72824 0.973358C1.718 0.977889 1.70957 0.984451 1.7007 0.990545C1.69183 0.984412 1.68336 0.977889 1.67316 0.973358C1.60593 0.943865 1.52781 0.956014 1.47426 1.00472C1.43429 1.04101 1.37574 1.12793 1.43336 1.30066C1.4625 1.38801 1.57558 1.62234 1.57933 1.63015C1.61031 1.69984 1.62668 1.77687 1.62668 1.85308C1.62668 1.95964 1.56488 2.05285 1.47633 2.07988C1.40437 2.10211 1.33023 2.09027 1.27281 2.04765C1.21547 2.00527 1.18258 1.94011 1.18258 1.86898C1.18258 1.77992 1.23969 1.75047 1.26426 1.74191C1.30242 1.72847 1.33855 1.73625 1.35035 1.75117C1.36027 1.76375 1.35922 1.79816 1.32375 1.85398C1.30176 1.8884 1.31179 1.93422 1.34629 1.95617C1.38105 1.97816 1.42668 1.96789 1.44847 1.93343C1.54301 1.78523 1.49258 1.69246 1.46648 1.65933C1.41386 1.593 1.31578 1.57008 1.22117 1.60097C1.25226 1.46914 1.28086 1.34449 1.16086 1.22445C1.13195 1.19554 1.08512 1.19554 1.05621 1.22445C1.0273 1.25336 1.0273 1.30019 1.05621 1.3291C1.11547 1.38836 1.10777 1.43707 1.07652 1.56922C1.05777 1.6484 1.03449 1.74715 1.03449 1.86886C1.03449 1.94984 1.06297 2.0273 1.11086 2.09093H1.10847C1.06758 2.09093 1.03445 2.12402 1.03445 2.16496C1.03445 2.20586 1.06754 2.23898 1.10847 2.23898H1.11086C1.06297 2.30261 1.03449 2.38003 1.03449 2.46101C1.03449 2.58273 1.05777 2.68148 1.07648 2.7607C1.10769 2.89285 1.11547 2.94156 1.05617 3.00081C1.02726 3.02972 1.02726 3.07656 1.05617 3.10546C1.07062 3.11992 1.08957 3.12714 1.10851 3.12714C1.12742 3.12714 1.1464 3.11992 1.16086 3.10546C1.28086 2.98542 1.25222 2.86081 1.22117 2.72894C1.31578 2.75972 1.4139 2.73691 1.46648 2.67058C1.49258 2.6375 1.54304 2.54468 1.44847 2.39648C1.42656 2.36207 1.38082 2.35183 1.34629 2.37375C1.31179 2.39574 1.30176 2.44156 1.32375 2.47593C1.35922 2.53175 1.36027 2.56617 1.35035 2.57875C1.33859 2.59347 1.30242 2.60128 1.26426 2.588C1.23969 2.57949 1.18258 2.54999 1.18258 2.46093C1.18258 2.3898 1.21547 2.3246 1.27281 2.28226C1.33027 2.23976 1.40457 2.22761 1.47633 2.25003C1.56484 2.27707 1.62668 2.37031 1.62668 2.47683C1.62668 2.55304 1.61035 2.63007 1.57933 2.69976L1.09453 3.79042C1.05469 3.88003 1.03445 3.97534 1.03445 4.07347C1.03445 4.19976 1.09187 4.31507 1.18226 4.38546C1.09191 4.45585 1.03445 4.57116 1.03445 4.69745C1.03445 4.79562 1.05472 4.89089 1.09453 4.9805L1.57925 6.07108C1.61023 6.14077 1.6266 6.2178 1.6266 6.29401C1.6266 6.40057 1.5648 6.49378 1.47625 6.52081C1.40429 6.54323 1.33015 6.5312 1.27273 6.48858C1.21539 6.4462 1.1825 6.38104 1.1825 6.30991C1.1825 6.22085 1.23961 6.19139 1.26418 6.18284C1.30234 6.16952 1.33847 6.17718 1.35027 6.1921C1.36019 6.20468 1.35914 6.23909 1.32367 6.29491C1.30168 6.32932 1.31172 6.37514 1.34621 6.3971C1.38097 6.41909 1.4266 6.40893 1.4484 6.37436C1.54293 6.22616 1.4925 6.13339 1.4664 6.10026C1.41379 6.03393 1.3157 6.01108 1.22109 6.0419C1.25219 5.91007 1.28078 5.78542 1.16078 5.66538C1.13187 5.63647 1.08504 5.63647 1.05613 5.66538C1.02722 5.69429 1.02722 5.74112 1.05613 5.77003C1.11539 5.82929 1.10769 5.878 1.07644 6.01014C1.05773 6.08936 1.03445 6.18811 1.03445 6.30983C1.03445 6.39081 1.06293 6.46827 1.11082 6.5319H1.10844C1.06754 6.5319 1.03441 6.56499 1.03441 6.60592C1.03441 6.64686 1.0675 6.67995 1.10844 6.67995H1.11082C1.06289 6.74358 1.03445 6.821 1.03445 6.90202C1.03445 7.02374 1.05773 7.12249 1.07644 7.20171C1.10765 7.33385 1.11543 7.38256 1.05613 7.44182C1.02722 7.47073 1.02722 7.51756 1.05613 7.54647C1.07058 7.56092 1.08953 7.56815 1.10847 7.56815C1.12738 7.56815 1.14637 7.56092 1.16082 7.54647C1.28082 7.42643 1.25219 7.30182 1.22113 7.16995C1.31574 7.20073 1.41386 7.17792 1.46644 7.11159C1.49254 7.0785 1.54301 6.98569 1.44843 6.83749C1.42652 6.80307 1.38078 6.79284 1.34625 6.81475C1.31176 6.83674 1.30172 6.88256 1.32371 6.91694C1.35918 6.97276 1.36023 7.00717 1.35031 7.01975C1.33855 7.03463 1.30238 7.04249 1.26422 7.02901C1.23965 7.02049 1.18254 6.991 1.18254 6.90194C1.18254 6.83081 1.21543 6.76561 1.27277 6.72327C1.33023 6.68077 1.40453 6.66862 1.47629 6.69104C1.5648 6.71807 1.62664 6.81131 1.62664 6.91784C1.62664 6.99405 1.61031 7.07108 1.57929 7.14077L1.09453 8.23155C1.05469 8.32116 1.03445 8.41647 1.03445 8.51459C1.03445 8.64088 1.09187 8.75619 1.18226 8.82658C1.09191 8.89697 1.03445 9.01229 1.03445 9.13858C1.03445 9.23674 1.05472 9.33201 1.09453 9.42162L1.57925 10.5122C1.61023 10.5819 1.6266 10.6589 1.6266 10.7351C1.6266 10.8417 1.5648 10.9349 1.47625 10.9619C1.40429 10.9844 1.33015 10.9722 1.27273 10.9297C1.21539 10.8873 1.1825 10.8222 1.1825 10.751C1.1825 10.662 1.23961 10.6325 1.26418 10.624C1.30234 10.6106 1.33847 10.6183 1.35027 10.6332C1.36019 10.6458 1.35914 10.6802 1.32367 10.736C1.30168 10.7704 1.31172 10.8162 1.34621 10.8382C1.38097 10.8602 1.4266 10.8501 1.4484 10.8155C1.54293 10.6673 1.4925 10.5745 1.4664 10.5414C1.41379 10.4749 1.3157 10.4521 1.22109 10.483C1.25219 10.3512 1.28078 10.2265 1.16078 10.1065C1.13187 10.0776 1.08504 10.0776 1.05613 10.1065C1.02722 10.1354 1.02722 10.1822 1.05613 10.2112C1.11539 10.2704 1.10769 10.3191 1.07644 10.4513C1.05773 10.5305 1.03445 10.6292 1.03445 10.7509C1.03445 10.8669 1.09004 10.9774 1.18297 11.047C1.09004 11.1166 1.03445 11.2271 1.03445 11.3431C1.03445 11.4648 1.05773 11.5636 1.07644 11.6428C1.10765 11.7749 1.11543 11.8236 1.05613 11.8829C1.02722 11.9118 1.02722 11.9586 1.05613 11.9876C1.07058 12.002 1.08953 12.0092 1.10847 12.0092C1.12738 12.0092 1.14637 12.002 1.16082 11.9876C1.28082 11.8675 1.25219 11.7429 1.22113 11.611C1.31574 11.6418 1.41386 11.619 1.46644 11.5527C1.49254 11.5196 1.54301 11.4268 1.44843 11.2786C1.42652 11.2442 1.38078 11.234 1.34625 11.2558C1.31176 11.2778 1.30172 11.3236 1.32371 11.358C1.35918 11.4138 1.36023 11.4483 1.35031 11.4608C1.33855 11.4757 1.30238 11.4834 1.26422 11.4701C1.23965 11.4616 1.18254 11.4321 1.18254 11.343C1.18254 11.2719 1.21543 11.2067 1.27277 11.1644C1.33023 11.1219 1.40453 11.1099 1.47629 11.1321C1.5648 11.1592 1.62664 11.2524 1.62664 11.3589C1.62664 11.4351 1.61031 11.5122 1.58031 11.5797C1.57554 11.5896 1.46242 11.824 1.43328 11.9113C1.37566 12.0841 1.43422 12.171 1.47418 12.2072C1.50836 12.2383 1.55238 12.2547 1.59738 12.2547C1.62289 12.2547 1.64875 12.2493 1.67312 12.2386C1.68336 12.2341 1.69179 12.2276 1.70066 12.2215C1.70953 12.2276 1.718 12.2341 1.7282 12.2386C1.75254 12.2494 1.77843 12.2547 1.80394 12.2547C1.84882 12.2547 1.89293 12.2383 1.92714 12.2072C1.96711 12.171 2.02566 12.084 1.96804 11.9113C1.9389 11.824 1.82582 11.5896 1.82207 11.5818C1.79109 11.5121 1.77472 11.4351 1.77472 11.3589C1.77472 11.2523 1.83652 11.1591 1.92507 11.1321C1.99707 11.1098 2.07117 11.1218 2.12859 11.1643C2.18593 11.2067 2.21882 11.2719 2.21882 11.343C2.21882 11.432 2.16171 11.4615 2.13714 11.4701C2.09914 11.4834 2.06273 11.4757 2.05105 11.4608C2.04113 11.4482 2.04218 11.4138 2.07765 11.358C2.09964 11.3236 2.08961 11.2778 2.05511 11.2558C2.02054 11.2341 1.97496 11.2442 1.95293 11.2785C1.8584 11.4267 1.90882 11.5195 1.93492 11.5526C1.98754 11.619 2.08562 11.6418 2.18023 11.611C2.14914 11.7428 2.12054 11.8675 2.24054 11.9875C2.255 12.002 2.27394 12.0092 2.29289 12.0092C2.31183 12.0092 2.33078 12.002 2.34523 11.9875C2.37414 11.9586 2.37414 11.9118 2.34523 11.8829C2.28597 11.8236 2.29367 11.7749 2.32492 11.6428C2.34363 11.5635 2.36691 11.4648 2.36691 11.3431C2.36691 11.227 2.31132 11.1166 2.21839 11.047C2.31132 10.9774 2.36691 10.8669 2.36691 10.7509C2.36691 10.6292 2.34363 10.5304 2.32492 10.4512C2.29371 10.3191 2.28593 10.2703 2.34523 10.2111C2.37414 10.1822 2.37414 10.1353 2.34523 10.1064C2.31632 10.0775 2.26949 10.0775 2.24058 10.1064C2.12058 10.2265 2.14921 10.351 2.18027 10.4829C2.08566 10.4521 1.98754 10.4748 1.93496 10.5413C1.90886 10.5744 1.8584 10.6672 1.95297 10.8154C1.97496 10.8498 2.02043 10.8599 2.05515 10.8381C2.08964 10.8162 2.09968 10.7703 2.07769 10.736C2.04222 10.6801 2.04117 10.6457 2.05109 10.6331C2.06281 10.6183 2.09914 10.6106 2.13718 10.6239C2.16175 10.6324 2.21886 10.6619 2.21886 10.751C2.21886 10.8221 2.18597 10.8873 2.12863 10.9296C2.07117 10.9721 1.99679 10.9843 1.92511 10.9619C1.8366 10.9348 1.77476 10.8416 1.77476 10.7351C1.77476 10.6588 1.79109 10.5818 1.82211 10.5121L2.30683 9.42154C2.34668 9.33193 2.36691 9.23662 2.36691 9.1385C2.36691 9.01221 2.30949 8.8969 2.2191 8.82651C2.30945 8.75612 2.36691 8.6408 2.36691 8.51451C2.36691 8.41635 2.34664 8.32108 2.30683 8.23147L1.82215 7.14096C1.79117 7.07127 1.7748 6.99424 1.7748 6.91803C1.7748 6.81147 1.8366 6.71827 1.92515 6.69124C1.99714 6.66897 2.07125 6.68096 2.12867 6.72346C2.18601 6.76585 2.2189 6.831 2.2189 6.90214C2.2189 6.9912 2.16179 7.02065 2.13722 7.0292C2.09922 7.04264 2.06281 7.03487 2.05113 7.01995C2.04121 7.00737 2.04226 6.97296 2.07773 6.91714C2.09972 6.88272 2.08968 6.83694 2.05519 6.81495C2.02062 6.79327 1.97504 6.80339 1.953 6.83768C1.85847 6.98589 1.9089 7.07866 1.935 7.11178C1.98761 7.17811 2.0857 7.20096 2.18031 7.17014C2.14922 7.30198 2.12062 7.42663 2.24062 7.54666C2.25507 7.56112 2.27402 7.56834 2.29296 7.56834C2.31191 7.56834 2.33086 7.56112 2.34531 7.54666C2.37421 7.51776 2.37421 7.47092 2.34531 7.44202C2.28605 7.38276 2.29375 7.33405 2.325 7.2019C2.34371 7.12268 2.36699 7.02393 2.36699 6.90221C2.36699 6.82124 2.33851 6.74378 2.29062 6.68014H2.293C2.3339 6.68014 2.36703 6.64706 2.36703 6.60612C2.36703 6.56522 2.33394 6.5321 2.293 6.5321H2.29062C2.33855 6.46846 2.36699 6.39108 2.36699 6.31003C2.36699 6.18831 2.34371 6.08956 2.325 6.01034C2.29379 5.87819 2.28601 5.82948 2.34531 5.77022C2.37421 5.74132 2.37421 5.69448 2.34531 5.66558C2.3164 5.63667 2.26957 5.63667 2.24066 5.66558C2.12066 5.78561 2.14929 5.91022 2.18035 6.0421C2.08574 6.01132 1.98761 6.03413 1.93504 6.10046C1.90894 6.13354 1.85847 6.22635 1.95304 6.37456C1.97504 6.40897 2.0205 6.41897 2.05523 6.39729C2.08972 6.3753 2.09976 6.32948 2.07777 6.2951C2.0423 6.23928 2.04125 6.20487 2.05117 6.19229C2.06289 6.17741 2.09922 6.16975 2.13726 6.18303C2.16183 6.19155 2.21894 6.22104 2.21894 6.3101C2.21894 6.38124 2.18605 6.44643 2.12871 6.48878C2.07125 6.53128 1.99687 6.54327 1.92519 6.521C1.83668 6.49397 1.77484 6.40073 1.77484 6.29421C1.77484 6.218 1.79117 6.14096 1.82218 6.07128L2.30691 4.98069C2.34675 4.89108 2.36699 4.79577 2.36699 4.69765C2.36699 4.57136 2.30957 4.45605 2.21918 4.38566C2.30953 4.31527 2.36699 4.19995 2.36699 4.07366C2.36699 3.9755 2.34671 3.88023 2.30691 3.79062L1.82218 2.70003C1.79121 2.63035 1.77484 2.55332 1.77484 2.4771C1.77484 2.37054 1.83664 2.27734 1.92519 2.25031C1.99718 2.22804 2.07129 2.24003 2.12871 2.28253C2.18605 2.32492 2.21894 2.39007 2.21894 2.46121C2.21894 2.55027 2.16183 2.57972 2.13726 2.58828C2.09925 2.6016 2.06285 2.59374 2.05117 2.57902C2.04125 2.56644 2.0423 2.53203 2.07777 2.47621C2.09976 2.44179 2.08972 2.39597 2.05523 2.37402C2.02066 2.35234 1.97507 2.3623 1.95304 2.39671C1.85851 2.54492 1.90894 2.63769 1.93504 2.67082C1.98765 2.73714 2.08574 2.75999 2.18035 2.72917C2.14925 2.86101 2.12066 2.98566 2.24066 3.1057C2.25511 3.12015 2.27406 3.12738 2.293 3.12738C2.31195 3.12738 2.33089 3.12015 2.34535 3.1057C2.37425 3.07679 2.37425 3.02995 2.34535 3.00105C2.28609 2.94179 2.29379 2.89308 2.32504 2.76093C2.34375 2.68171 2.36703 2.58296 2.36703 2.46125C2.36703 2.38027 2.33855 2.30281 2.29066 2.23918H2.29304C2.33394 2.23918 2.36707 2.20609 2.36707 2.16515C2.36707 2.12425 2.33398 2.09113 2.29304 2.09113H2.29066C2.33859 2.0275 2.36703 1.95011 2.36703 1.86906C2.36679 1.74714 2.34351 1.6484 2.32484 1.56918ZM1.57367 1.25375C1.54738 1.17484 1.55656 1.12988 1.5739 1.1141C1.58523 1.1034 1.60242 1.10383 1.61332 1.10875C1.62668 1.11469 1.62668 1.1241 1.62668 1.12871C1.62668 1.16961 1.65976 1.20273 1.7007 1.20273C1.7416 1.20273 1.77472 1.16965 1.77472 1.12871C1.77472 1.1241 1.77472 1.11469 1.78808 1.10875C1.79879 1.10383 1.81586 1.1034 1.8275 1.1141C1.84484 1.12988 1.85402 1.17484 1.82773 1.25375C1.80859 1.31097 1.73933 1.45996 1.70074 1.54082C1.66293 1.46183 1.59293 1.31136 1.57367 1.25375ZM1.70066 4.30784C1.72191 4.33671 1.74593 4.36359 1.77515 4.38546C1.74593 4.40737 1.72191 4.43421 1.70066 4.46308C1.67941 4.43421 1.65539 4.40734 1.62617 4.38546C1.65539 4.36355 1.67941 4.33675 1.70066 4.30784ZM1.70066 8.74893C1.72191 8.7778 1.74593 8.80467 1.77515 8.82655C1.74593 8.84846 1.72191 8.87529 1.70066 8.90416C1.67941 8.87529 1.65539 8.84842 1.62617 8.82655C1.65539 8.80463 1.67941 8.77787 1.70066 8.74893ZM1.82761 11.9583C1.8539 12.0372 1.84472 12.0822 1.82738 12.0979C1.81574 12.1085 1.79867 12.1081 1.78797 12.1033C1.77461 12.0974 1.77461 12.088 1.77461 12.0833C1.77461 12.0424 1.74152 12.0093 1.70058 12.0093C1.65965 12.0093 1.62656 12.0424 1.62656 12.0833C1.62656 12.0879 1.62656 12.0974 1.6132 12.1033C1.60234 12.1081 1.58515 12.1085 1.57379 12.0979C1.55644 12.0822 1.54726 12.0372 1.57355 11.9583C1.59269 11.9011 1.66195 11.7521 1.70054 11.6712C1.73836 11.7502 1.80836 11.9007 1.82761 11.9583ZM1.77445 11.0471C1.74644 11.0689 1.7216 11.095 1.70066 11.1245C1.67976 11.095 1.65488 11.0689 1.62687 11.0471C1.65488 11.0253 1.67972 10.9992 1.70066 10.9697C1.72156 10.9992 1.7464 11.0253 1.77445 11.0471ZM2.1714 9.36143L1.70062 10.4206L1.22984 9.36143C1.19887 9.29174 1.1825 9.21471 1.1825 9.1385C1.1825 9.03193 1.24429 8.93869 1.33285 8.9117C1.4048 8.88944 1.47902 8.90143 1.53636 8.94393C1.59371 8.98631 1.6266 9.05147 1.6266 9.1226C1.6266 9.21166 1.56949 9.24111 1.54492 9.24967C1.50676 9.26299 1.47047 9.25533 1.45883 9.24041C1.4489 9.22783 1.44996 9.19342 1.48543 9.1376C1.50742 9.10319 1.49738 9.05737 1.46289 9.03541C1.42832 9.01373 1.38273 9.02385 1.3607 9.05815C1.26617 9.20635 1.3166 9.29912 1.34269 9.33225C1.39629 9.3999 1.49711 9.42319 1.59351 9.38947C1.60449 9.38569 1.61562 9.38096 1.6266 9.37537V9.56256C1.62437 9.52358 1.59199 9.49272 1.55261 9.49272C1.51172 9.49272 1.47859 9.5258 1.47859 9.56674C1.47859 9.61502 1.51234 9.69877 1.6266 9.72471V9.86279C1.6266 9.90369 1.65968 9.93682 1.70062 9.93682C1.74156 9.93682 1.77465 9.90373 1.77465 9.86279V9.72471C1.8889 9.69877 1.92265 9.61502 1.92265 9.56674C1.92265 9.52584 1.88965 9.49029 1.84879 9.49029C1.80789 9.49029 1.77492 9.52096 1.77492 9.56186C1.77496 9.56174 1.77488 9.56197 1.77492 9.56186L1.77461 9.37545C1.78558 9.38104 1.79672 9.38576 1.80769 9.38955C1.9041 9.42322 2.00488 9.39994 2.05851 9.33233C2.08461 9.29924 2.13507 9.20643 2.0405 9.05822C2.01851 9.02381 1.97285 9.01369 1.93832 9.03549C1.90382 9.05748 1.89379 9.1033 1.91578 9.13768C1.95125 9.1935 1.9523 9.22791 1.94238 9.24049C1.93066 9.25537 1.89437 9.26303 1.85629 9.24975C1.83172 9.24123 1.77461 9.21174 1.77461 9.12268C1.77461 9.05154 1.8075 8.98635 1.86484 8.94401C1.9223 8.90151 1.99668 8.88936 2.06836 8.91178C2.15687 8.93881 2.21871 9.03205 2.21871 9.13858C2.21879 9.21471 2.20246 9.29178 2.1714 9.36143ZM2.1714 8.29166C2.20238 8.36135 2.21875 8.43838 2.21875 8.51459C2.21875 8.62116 2.15695 8.71436 2.06839 8.74139C1.99656 8.76381 1.92222 8.75166 1.86488 8.70916C1.80754 8.66678 1.77465 8.60162 1.77465 8.53049C1.77465 8.44143 1.83175 8.41198 1.85632 8.40342C1.89441 8.3901 1.93074 8.39776 1.94242 8.41268C1.95234 8.42526 1.95129 8.45967 1.91582 8.51549C1.89382 8.54991 1.90386 8.59569 1.93836 8.61768C1.97312 8.63967 2.01875 8.62951 2.04054 8.59494C2.13507 8.44674 2.08464 8.35397 2.05855 8.32084C2.00492 8.25319 1.90414 8.23018 1.80773 8.26362C1.79675 8.26741 1.78562 8.27217 1.77465 8.27772V8.09049C1.77687 8.12936 1.80925 8.16041 1.84863 8.16041C1.88953 8.16041 1.92265 8.12733 1.92265 8.08639C1.92265 8.03811 1.8889 7.95436 1.77465 7.92842V7.79034C1.77465 7.74944 1.74156 7.71631 1.70062 7.71631C1.65968 7.71631 1.6266 7.7494 1.6266 7.79034V7.92842C1.51234 7.95436 1.47859 8.03811 1.47859 8.08639C1.47859 8.12729 1.5116 8.16284 1.55246 8.16284C1.59336 8.16284 1.62633 8.13217 1.62633 8.09127L1.62664 8.27768C1.61566 8.27209 1.60453 8.26737 1.59355 8.26358C1.49715 8.23018 1.39633 8.25319 1.34273 8.3208C1.31664 8.35389 1.26617 8.4467 1.36074 8.59491C1.38273 8.62932 1.4284 8.63932 1.46293 8.61764C1.49742 8.59565 1.50746 8.54983 1.48547 8.51545C1.45 8.45963 1.44894 8.42522 1.45886 8.41264C1.47051 8.39776 1.50679 8.3901 1.54496 8.40338C1.56953 8.4119 1.62664 8.44139 1.62664 8.53045C1.62664 8.60158 1.59375 8.66678 1.5364 8.70912C1.47894 8.75162 1.40472 8.76377 1.33289 8.74135C1.24437 8.71432 1.18254 8.62108 1.18254 8.51455C1.18254 8.43834 1.19886 8.36131 1.22988 8.29162L1.70066 7.23241L2.1714 8.29166ZM1.77445 6.60604C1.74644 6.62784 1.7216 6.65393 1.70066 6.68342C1.67976 6.65393 1.65488 6.62788 1.62687 6.60604C1.65488 6.58424 1.67972 6.55815 1.70066 6.52866C1.72156 6.55811 1.7464 6.58421 1.77445 6.60604ZM2.1714 4.92038L1.70062 5.9796L1.22984 4.92038C1.19887 4.85069 1.1825 4.77366 1.1825 4.69745C1.1825 4.59089 1.24429 4.49769 1.33285 4.47066C1.4048 4.44839 1.47902 4.46038 1.53636 4.50288C1.59371 4.54526 1.6266 4.61042 1.6266 4.68155C1.6266 4.77062 1.56949 4.80007 1.54492 4.80862C1.50676 4.82206 1.47047 4.81429 1.45883 4.79937C1.4489 4.78679 1.44996 4.75237 1.48543 4.69655C1.50742 4.66214 1.49738 4.61632 1.46289 4.59437C1.42832 4.57257 1.38273 4.58265 1.3607 4.6171C1.26617 4.7653 1.3166 4.85808 1.34269 4.8912C1.39629 4.95886 1.49711 4.98198 1.59351 4.94843C1.60449 4.94464 1.61562 4.93991 1.6266 4.93433V5.12151C1.62437 5.08265 1.59199 5.05159 1.55261 5.05159C1.51172 5.05159 1.47859 5.08468 1.47859 5.12562C1.47859 5.1739 1.51234 5.25765 1.6266 5.28358V5.42167C1.6266 5.46257 1.65968 5.49569 1.70062 5.49569C1.74156 5.49569 1.77465 5.46261 1.77465 5.42167V5.28358C1.8889 5.25765 1.92265 5.1739 1.92265 5.12562C1.92265 5.08472 1.88965 5.04913 1.84879 5.04913C1.80789 5.04913 1.77492 5.07979 1.77492 5.12069L1.77461 4.93429C1.78558 4.93987 1.79672 4.9446 1.80769 4.94839C1.9041 4.9819 2.00488 4.95878 2.05851 4.89116C2.08461 4.85808 2.13507 4.76526 2.0405 4.61706C2.01851 4.58249 1.97285 4.57241 1.93832 4.59433C1.90382 4.61632 1.89379 4.66214 1.91578 4.69651C1.95125 4.75233 1.9523 4.78675 1.94238 4.79933C1.93066 4.81421 1.89437 4.82206 1.85629 4.80858C1.83172 4.80007 1.77461 4.77058 1.77461 4.68151C1.77461 4.61038 1.8075 4.54519 1.86484 4.50284C1.9223 4.46034 1.99668 4.44835 2.06836 4.47062C2.15687 4.49765 2.21871 4.59089 2.21871 4.69741C2.21879 4.77366 2.20246 4.85069 2.1714 4.92038ZM2.1714 3.85058C2.20238 3.92027 2.21875 3.9973 2.21875 4.07351C2.21875 4.18007 2.15695 4.27327 2.06839 4.3003C1.99656 4.32273 1.92222 4.31058 1.86488 4.26808C1.80754 4.2257 1.77465 4.16054 1.77465 4.08941C1.77465 4.00034 1.83175 3.97089 1.85632 3.96234C1.89441 3.94902 1.93074 3.95667 1.94242 3.97159C1.95234 3.98417 1.95129 4.01859 1.91582 4.07441C1.89382 4.10882 1.90386 4.1546 1.93836 4.17659C1.97312 4.19839 2.01875 4.18843 2.04054 4.15386C2.13507 4.00566 2.08464 3.91288 2.05855 3.87976C2.00492 3.8121 1.90414 3.78898 1.80773 3.82253C1.79675 3.82632 1.78562 3.83105 1.77465 3.83663V3.64945C1.77687 3.68843 1.80925 3.71929 1.84863 3.71929C1.88953 3.71929 1.92265 3.6862 1.92265 3.64527C1.92265 3.59699 1.8889 3.51324 1.77465 3.4873V3.34921C1.77465 3.30831 1.74156 3.27519 1.70062 3.27519C1.65968 3.27519 1.6266 3.30827 1.6266 3.34921V3.4873C1.51234 3.51324 1.47859 3.59699 1.47859 3.64527C1.47859 3.68616 1.5116 3.72175 1.55246 3.72175C1.59336 3.72175 1.62633 3.69109 1.62633 3.65019C1.62629 3.65031 1.62636 3.65007 1.62633 3.65019L1.62664 3.83659C1.61566 3.83101 1.60453 3.82628 1.59355 3.82249C1.49715 3.78898 1.39633 3.8121 1.34273 3.87972C1.31664 3.91281 1.26617 4.00562 1.36074 4.15382C1.38273 4.18823 1.4284 4.19823 1.46293 4.17655C1.49742 4.15456 1.50746 4.10874 1.48547 4.07437C1.45 4.01855 1.44894 3.98413 1.45886 3.97155C1.47051 3.95667 1.50679 3.94902 1.54496 3.9623C1.56953 3.97081 1.62664 4.00031 1.62664 4.08937C1.62664 4.1605 1.59375 4.22569 1.5364 4.26804C1.47894 4.31054 1.40472 4.32269 1.33289 4.30027C1.24437 4.27323 1.18254 4.17999 1.18254 4.07347C1.18254 3.99726 1.19886 3.92023 1.22988 3.85054L1.70066 2.79132L2.1714 3.85058ZM1.62683 2.16496C1.65484 2.14316 1.67968 2.11707 1.70062 2.08757C1.72152 2.11707 1.7464 2.14312 1.77441 2.16496C1.7464 2.18675 1.72156 2.21285 1.70062 2.24234C1.67972 2.21285 1.65488 2.18675 1.62683 2.16496Z" fill="#FFE15A"/>
<path d="M10.5758 7.51405C11.5596 7.51405 12.3572 6.71645 12.3572 5.73257C12.3572 4.74868 11.5596 3.95109 10.5758 3.95109C9.59188 3.95109 8.79428 4.74868 8.79428 5.73257C8.79428 6.71645 9.59188 7.51405 10.5758 7.51405Z" fill="#FFE15A"/>
<path d="M10.7096 3.4612C10.7096 3.53499 10.6498 3.59484 10.576 3.59484C10.5022 3.59484 10.4424 3.53499 10.4424 3.4612C10.4424 3.38742 10.576 3.06035 10.576 3.06035C10.576 3.06035 10.7096 3.38742 10.7096 3.4612Z" fill="#FFE15A"/>
<path d="M10.4424 8.00428C10.4424 7.93049 10.5022 7.87065 10.576 7.87065C10.6498 7.87065 10.7097 7.93049 10.7097 8.00428C10.7097 8.07807 10.576 8.40514 10.576 8.40514C10.576 8.40514 10.4424 8.07811 10.4424 8.00428Z" fill="#FFE15A"/>
<path d="M12.8476 5.86636C12.7738 5.86636 12.7139 5.80651 12.7139 5.73272C12.7139 5.65893 12.7738 5.59909 12.8476 5.59909C12.9213 5.59909 13.2484 5.73272 13.2484 5.73272C13.2484 5.73272 12.9213 5.86636 12.8476 5.86636Z" fill="#FFE15A"/>
<path d="M8.30448 5.59913C8.37827 5.59913 8.43811 5.65897 8.43811 5.73276C8.43811 5.80655 8.37827 5.86639 8.30448 5.86639C8.23069 5.86639 7.90362 5.73276 7.90362 5.73276C7.90362 5.73276 8.23069 5.59913 8.30448 5.59913Z" fill="#FFE15A"/>
<path d="M12.2767 4.22101C12.2246 4.27319 12.14 4.27319 12.0878 4.22101C12.0355 4.16882 12.0356 4.08425 12.0878 4.03202C12.1399 3.9798 12.4657 3.84304 12.4657 3.84304C12.4657 3.84304 12.329 4.16882 12.2767 4.22101Z" fill="#FFE15A"/>
<path d="M8.87534 7.24448C8.92752 7.19229 9.01209 7.19229 9.06432 7.24448C9.11655 7.29666 9.11651 7.38123 9.06432 7.43346C9.01213 7.48568 8.68639 7.6224 8.68639 7.6224C8.68639 7.6224 8.82315 7.2967 8.87534 7.24448Z" fill="#FFE15A"/>
<path d="M12.0878 7.43346C12.0356 7.38127 12.0356 7.2967 12.0878 7.24448C12.14 7.19225 12.2245 7.19229 12.2768 7.24448C12.329 7.29666 12.4658 7.6224 12.4658 7.6224C12.4658 7.6224 12.14 7.48561 12.0878 7.43346Z" fill="#FFE15A"/>
<path d="M9.06428 4.03202C9.11647 4.08421 9.11647 4.16878 9.06428 4.22101C9.01209 4.27323 8.92752 4.27319 8.8753 4.22101C8.82307 4.16882 8.68631 3.84308 8.68631 3.84308C8.68631 3.84308 9.01209 3.97988 9.06428 4.03202Z" fill="#FFE15A"/>
<path d="M9.83022 3.58296C9.85846 3.65117 9.82608 3.72929 9.75787 3.75753C9.68967 3.78578 9.61154 3.75339 9.5833 3.68519C9.55506 3.61699 9.55334 3.2637 9.55334 3.2637C9.55334 3.2637 9.80197 3.51476 9.83022 3.58296Z" fill="#FFE15A"/>
<path d="M11.3219 7.88252C11.2937 7.81432 11.326 7.73619 11.3942 7.70795C11.4624 7.67971 11.5406 7.71209 11.5688 7.7803C11.597 7.8485 11.5988 8.20178 11.5988 8.20178C11.5988 8.20178 11.3501 7.95073 11.3219 7.88252Z" fill="#FFE15A"/>
<path d="M12.7258 4.98695C12.6576 5.01519 12.5795 4.9828 12.5512 4.9146C12.523 4.8464 12.5554 4.76827 12.6236 4.74003C12.6918 4.71179 13.045 4.71007 13.045 4.71007C13.045 4.71007 12.794 4.95866 12.7258 4.98695Z" fill="#FFE15A"/>
<path d="M8.42627 6.47854C8.49448 6.4503 8.5726 6.48268 8.60084 6.55089C8.62908 6.61909 8.5967 6.69722 8.5285 6.72546C8.4603 6.7537 8.10702 6.75542 8.10702 6.75542C8.10702 6.75542 8.35807 6.50682 8.42627 6.47854Z" fill="#FFE15A"/>
<path d="M11.5688 3.68523C11.5405 3.75343 11.4624 3.78577 11.3942 3.75757C11.326 3.72933 11.2937 3.65117 11.3219 3.583C11.3501 3.51484 11.5987 3.26378 11.5987 3.26378C11.5987 3.26378 11.597 3.61706 11.5688 3.68523Z" fill="#FFE15A"/>
<path d="M9.5833 7.78025C9.61154 7.71205 9.68971 7.67971 9.75787 7.70791C9.82608 7.73615 9.85842 7.81432 9.83022 7.88248C9.80198 7.95068 9.55338 8.2017 9.55338 8.2017C9.55338 8.2017 9.55506 7.84846 9.5833 7.78025Z" fill="#FFE15A"/>
<path d="M12.6236 6.72546C12.5554 6.69722 12.523 6.61905 12.5512 6.55089C12.5795 6.48268 12.6576 6.45034 12.7258 6.47854C12.794 6.50674 13.045 6.75538 13.045 6.75538C13.045 6.75538 12.6917 6.75374 12.6236 6.72546Z" fill="#FFE15A"/>
<path d="M8.5285 4.74003C8.5967 4.76827 8.62905 4.84644 8.60084 4.9146C8.5726 4.98276 8.49444 5.01515 8.42627 4.98694C8.35811 4.9587 8.10705 4.71011 8.10705 4.71011C8.10705 4.71011 8.46037 4.71175 8.5285 4.74003Z" fill="#FFE15A"/>
<path d="M10.264 3.47878C10.2784 3.55116 10.2314 3.62151 10.159 3.63589C10.0866 3.6503 10.0162 3.60331 10.0019 3.53089C9.98744 3.45851 10.0547 3.11167 10.0547 3.11167C10.0547 3.11167 10.2496 3.4064 10.264 3.47878Z" fill="#FFE15A"/>
<path d="M10.8881 7.9867C10.8737 7.91432 10.9207 7.84397 10.9931 7.82959C11.0656 7.81518 11.1359 7.86217 11.1503 7.93459C11.1647 8.00698 11.0974 8.35381 11.0974 8.35381C11.0974 8.35381 10.9025 8.05909 10.8881 7.9867Z" fill="#FFE15A"/>
<path d="M12.83 5.42062C12.7576 5.43503 12.6873 5.38804 12.6729 5.31562C12.6585 5.24319 12.7055 5.17288 12.7779 5.15851C12.8503 5.14409 13.1971 5.21136 13.1971 5.21136C13.1971 5.21136 12.9024 5.40624 12.83 5.42062Z" fill="#FFE15A"/>
<path d="M8.32206 6.04487C8.39444 6.03046 8.46479 6.07745 8.47916 6.14987C8.49358 6.22229 8.44659 6.29261 8.37416 6.30698C8.30178 6.32139 7.95495 6.25413 7.95495 6.25413C7.95495 6.25413 8.24967 6.05925 8.32206 6.04487Z" fill="#FFE15A"/>
<path d="M11.9492 3.91827C11.9082 3.97964 11.8252 3.99612 11.7638 3.95511C11.7024 3.91409 11.686 3.83112 11.727 3.76976C11.7679 3.70839 12.0608 3.5107 12.0608 3.5107C12.0608 3.5107 11.9901 3.85687 11.9492 3.91827Z" fill="#FFE15A"/>
<path d="M9.20291 7.54722C9.24389 7.48585 9.3269 7.46937 9.38826 7.51038C9.44963 7.55136 9.46612 7.63436 9.4251 7.69573C9.38412 7.7571 9.09131 7.95479 9.09131 7.95479C9.09131 7.95479 9.16193 7.60862 9.20291 7.54722Z" fill="#FFE15A"/>
<path d="M12.3905 7.10585C12.3292 7.06487 12.3127 6.98186 12.3537 6.9205C12.3947 6.85913 12.4777 6.84264 12.539 6.88366C12.6004 6.92464 12.7981 7.21745 12.7981 7.21745C12.7981 7.21745 12.4519 7.14682 12.3905 7.10585Z" fill="#FFE15A"/>
<path d="M8.76155 4.35964C8.82291 4.40062 8.8394 4.48362 8.79838 4.54499C8.75741 4.60636 8.6744 4.62284 8.61303 4.58183C8.55167 4.54081 8.35397 4.24804 8.35397 4.24804C8.35397 4.24804 8.70022 4.31866 8.76155 4.35964Z" fill="#FFE15A"/>
<path d="M9.4251 3.76976C9.46608 3.83112 9.44959 3.91409 9.38826 3.95511C9.32694 3.99612 9.24393 3.9796 9.20291 3.91827C9.16194 3.85691 9.09131 3.51074 9.09131 3.51074C9.09131 3.51074 9.38412 3.70843 9.4251 3.76976Z" fill="#FFE15A"/>
<path d="M11.7269 7.69573C11.686 7.63436 11.7024 7.55139 11.7638 7.51038C11.8251 7.4694 11.9081 7.48589 11.9491 7.54721C11.9901 7.60858 12.0607 7.95475 12.0607 7.95475C12.0607 7.95475 11.7679 7.75706 11.7269 7.69573Z" fill="#FFE15A"/>
<path d="M12.539 4.58183C12.4776 4.6228 12.3947 4.60632 12.3536 4.54499C12.3127 4.48362 12.3292 4.40066 12.3905 4.35964C12.4519 4.31866 12.798 4.24804 12.798 4.24804C12.798 4.24804 12.6004 4.54085 12.539 4.58183Z" fill="#FFE15A"/>
<path d="M8.61307 6.88366C8.67444 6.84269 8.75741 6.85917 8.79842 6.9205C8.8394 6.98187 8.82291 7.06483 8.76159 7.10585C8.70022 7.14683 8.35405 7.21745 8.35405 7.21745C8.35405 7.21745 8.5517 6.92464 8.61307 6.88366Z" fill="#FFE15A"/>
<path d="M11.1503 3.53089C11.1358 3.60327 11.0655 3.6503 10.9931 3.63589C10.9208 3.62148 10.8737 3.55116 10.8881 3.47878C10.9026 3.4064 11.0974 3.11167 11.0974 3.11167C11.0974 3.11167 11.1646 3.45851 11.1503 3.53089Z" fill="#FFE15A"/>
<path d="M10.0018 7.93459C10.0162 7.86221 10.0865 7.81518 10.1589 7.82959C10.2313 7.84401 10.2783 7.91432 10.2639 7.9867C10.2495 8.05908 10.0547 8.35381 10.0547 8.35381C10.0547 8.35381 9.98744 8.00698 10.0018 7.93459Z" fill="#FFE15A"/>
<path d="M12.7779 6.30698C12.7055 6.29257 12.6585 6.22225 12.6729 6.14987C12.6873 6.07749 12.7576 6.03046 12.83 6.04487C12.9024 6.05929 13.1971 6.25413 13.1971 6.25413C13.1971 6.25413 12.8503 6.32135 12.7779 6.30698Z" fill="#FFE15A"/>
<path d="M8.3742 5.1585C8.44659 5.17292 8.49362 5.24323 8.4792 5.31562C8.46479 5.388 8.39448 5.43503 8.32209 5.42062C8.24971 5.4062 7.95499 5.21136 7.95499 5.21136C7.95499 5.21136 8.30182 5.14413 8.3742 5.1585Z" fill="#FFE15A"/>
<path d="M14.7667 6.20147C14.7145 6.17952 14.6548 6.20468 14.6331 6.25655C14.6327 6.25753 14.6306 6.26257 14.6272 6.27077C14.5499 6.45116 14.3902 6.71479 14.2288 6.9628C14.3791 6.47909 14.5165 5.96245 14.5261 5.92612C14.5404 5.87186 14.5083 5.81616 14.4541 5.80143C14.3999 5.78686 14.3441 5.81843 14.3289 5.87245C14.2588 6.1237 14.1154 6.45436 13.9831 6.73428C14.0073 6.42218 14.0119 6.13304 14.0122 6.1121C14.013 6.05682 13.9697 6.01112 13.9144 6.0085C13.8624 6.01011 13.8123 6.04804 13.8082 6.10327C13.6774 7.9028 11.9458 8.7078 11.7772 8.78186C11.689 8.79065 11.2781 8.83694 10.9051 8.96643C10.8629 8.98112 10.8269 8.99584 10.791 9.01045C10.7777 9.00545 10.7634 9.00264 10.7483 9.00354C9.60373 9.08635 8.69108 8.61682 8.03514 7.61088C7.53956 6.85081 7.38413 6.053 7.3826 6.04503C7.37213 5.98956 7.31901 5.95382 7.26331 5.96362C7.20784 5.97417 7.17139 6.02745 7.1819 6.08292C7.18604 6.10495 7.25424 6.45319 7.44206 6.91151C7.19077 6.51483 7.01565 6.03429 6.95401 5.78401C6.95276 5.77901 6.94956 5.77522 6.94768 5.77061C6.94479 5.76354 6.94237 5.75643 6.93811 5.7503C6.9351 5.74597 6.93116 5.7428 6.9276 5.73901C6.92202 5.73311 6.91667 5.72733 6.90983 5.72292C6.90592 5.72038 6.90155 5.71913 6.89729 5.71714C6.88975 5.71362 6.88237 5.71014 6.87397 5.70854C6.86815 5.70741 6.86221 5.70815 6.85616 5.70804C6.85003 5.70796 6.84424 5.7064 6.83796 5.70749C6.83659 5.70772 6.83553 5.70866 6.83417 5.70897C6.83284 5.70925 6.83159 5.70882 6.83026 5.70909C6.82479 5.71042 6.82061 5.71386 6.81561 5.716C6.80924 5.71878 6.80272 5.72085 6.79714 5.72472C6.79163 5.7285 6.78753 5.73343 6.78296 5.73815C6.77839 5.74284 6.77362 5.74698 6.77003 5.75241C6.76639 5.75792 6.76444 5.76413 6.76186 5.77026C6.7594 5.77624 6.75655 5.78186 6.75526 5.78831C6.75393 5.79491 6.75452 5.80171 6.75456 5.80862C6.75456 5.81413 6.75303 5.8194 6.75401 5.82503C6.7544 5.82745 6.75518 5.82987 6.75561 5.83222C6.75573 5.83264 6.75589 5.83362 6.756 5.83409C6.81921 6.20647 6.96983 6.59249 7.10604 6.88686C6.88975 6.64143 6.70901 6.35866 6.64495 6.1912C6.64311 6.18632 6.6394 6.18292 6.6369 6.17854C6.63311 6.17179 6.62979 6.16487 6.62467 6.15928C6.62104 6.1553 6.61663 6.15272 6.61249 6.1494C6.60628 6.1444 6.60038 6.13936 6.59319 6.13593C6.58858 6.13374 6.58358 6.13304 6.5787 6.13151C6.57116 6.12925 6.56385 6.12675 6.55585 6.12624C6.54956 6.12581 6.54331 6.12741 6.53694 6.12823C6.53104 6.12897 6.52522 6.12823 6.51936 6.13007C6.51823 6.13042 6.51745 6.13132 6.51639 6.13171C6.5153 6.13206 6.51421 6.13182 6.51311 6.13225C6.50757 6.13436 6.50362 6.13846 6.49866 6.14139C6.49284 6.14483 6.48663 6.14768 6.48167 6.15214C6.47659 6.15671 6.47307 6.16237 6.46909 6.1678C6.4653 6.17292 6.46108 6.17749 6.45827 6.18319C6.45534 6.18917 6.45425 6.19565 6.45257 6.2021C6.45089 6.20839 6.44866 6.21425 6.44823 6.22085C6.44776 6.22745 6.4494 6.23405 6.45026 6.24073C6.451 6.24651 6.45022 6.25225 6.45202 6.25796C6.56319 6.61655 6.83053 7.04319 7.03999 7.34374C6.86546 7.20924 6.73717 7.06377 6.69995 7.01987C6.69592 7.0151 6.69198 7.0103 6.68796 7.00553C6.65194 6.96221 6.58831 6.95604 6.54468 6.99135C6.5012 7.02686 6.49436 7.09077 6.52952 7.1344C6.53143 7.13682 6.53909 7.14639 6.5519 7.16135C6.70518 7.34374 6.87217 7.51393 7.02346 7.65764L6.81651 7.56944C6.76932 7.54909 6.71385 7.56745 6.68803 7.61233C6.66217 7.65725 6.67385 7.71409 6.71526 7.74522C6.73542 7.76018 7.1019 8.03397 7.41917 8.1958C7.38924 8.1976 7.35413 8.19541 7.31483 8.19241C7.26686 8.1878 7.21967 8.22213 7.20799 8.2708C7.19651 8.31967 7.22206 8.36959 7.26846 8.38873C7.27628 8.39194 7.37295 8.43182 7.49233 8.47432C7.46448 8.48569 7.44233 8.50905 7.43315 8.53936C7.4194 8.58467 7.43873 8.63377 7.47983 8.65729C7.49053 8.6635 7.63495 8.74631 7.81366 8.81971C7.80889 8.82709 7.80498 8.83506 7.80205 8.84385C7.78807 8.88674 7.80405 8.93385 7.84127 8.95959C7.87229 8.98092 8.56623 9.45186 9.3767 9.45186C9.4299 9.45186 9.48365 9.44987 9.53772 9.44549C9.59389 9.44108 9.63592 9.39182 9.63143 9.33553C9.62693 9.27924 9.57815 9.23674 9.52139 9.24194C9.01225 9.28346 8.52174 9.09229 8.23002 8.94619C8.26854 8.93678 8.29069 8.92823 8.29619 8.92604C8.34119 8.90768 8.36713 8.86037 8.35834 8.81268C8.34955 8.76502 8.30846 8.73006 8.25987 8.72905C8.14143 8.72662 7.97741 8.66897 7.83612 8.60709C7.88948 8.58037 7.92065 8.55479 7.92338 8.5526C7.95413 8.52686 7.96709 8.48577 7.95663 8.44705C7.94608 8.40854 7.91389 8.37959 7.87444 8.37323C7.83104 8.36604 7.77694 8.35205 7.7203 8.33491C7.77538 8.30319 7.79881 8.26827 7.8078 8.25049C7.82198 8.22217 7.82229 8.18901 7.8087 8.16049C7.79502 8.13198 7.76901 8.11139 7.73803 8.10479C7.71131 8.09901 7.68104 8.08924 7.64834 8.07647C7.65432 8.07049 7.65983 8.0637 7.66428 8.05592C7.6903 8.01182 7.67956 7.95514 7.63917 7.92342C7.63706 7.92182 7.55776 7.85959 7.43768 7.756C7.45674 7.74901 7.47358 7.73604 7.48577 7.7185C7.51151 7.68139 7.50975 7.6317 7.48147 7.59655C7.4792 7.59373 7.39979 7.49389 7.29034 7.34225C7.32647 7.3703 7.36256 7.39897 7.39866 7.42217C7.41565 7.43295 7.43487 7.43834 7.45393 7.43834C7.47979 7.43834 7.5053 7.42858 7.52495 7.4096C7.53303 7.40178 7.53936 7.3928 7.54436 7.38323C7.60635 7.44944 7.67147 7.50956 7.73987 7.56085C7.74877 7.56753 7.75959 7.56741 7.76959 7.57077C7.79858 7.61936 7.82873 7.66803 7.86038 7.7167C8.4808 8.67131 9.35561 9.18264 10.4048 9.21334C10.3082 9.27201 10.2033 9.33264 10.0373 9.39733C10.001 9.41147 9.969 9.42561 9.93682 9.43979C9.92127 9.44283 9.9067 9.44846 9.89455 9.45811C9.60471 9.59229 9.48471 9.72486 9.43604 9.8176C9.38744 9.90979 9.42936 10.0044 9.48869 10.0535C9.50713 10.0686 9.53061 10.0764 9.55412 10.0764C9.57029 10.0764 9.58647 10.0728 9.60111 10.0654C9.63725 10.0474 9.66139 10.0093 9.65979 9.96924C9.66397 9.96467 9.68174 9.9499 9.7374 9.94807C9.77799 9.94467 9.86342 9.95385 9.96311 9.96182C10.0579 9.96963 10.1717 9.9785 10.2926 9.98471C10.217 10.0729 10.129 10.1751 10.129 10.1751C10.1026 10.2059 10.0968 10.2494 10.1144 10.2859C10.1321 10.3226 10.1701 10.3454 10.21 10.3439C10.2907 10.3411 10.3456 10.3395 10.3816 10.3388C10.413 10.3799 10.4515 10.3962 10.4764 10.4026C10.5467 10.4206 10.6167 10.3924 10.6694 10.3591C10.7094 10.3879 10.7493 10.4 10.7809 10.4046C10.8522 10.4144 10.9183 10.3937 10.9661 10.3701C11.0156 10.4021 11.064 10.4102 11.101 10.4102C11.1015 10.4102 11.1021 10.4102 11.1027 10.4102C11.1824 10.4098 11.2522 10.3713 11.3015 10.3336C11.3451 10.3595 11.3868 10.3679 11.419 10.3693C11.4922 10.3719 11.5528 10.3438 11.5931 10.3174C11.7371 10.3463 11.8612 10.2785 11.9433 10.2037C11.9807 10.2254 12.0163 10.2308 12.0446 10.2294C12.1176 10.2268 12.1731 10.1825 12.2088 10.1428C12.372 10.1625 12.4892 10.1324 12.5568 10.052C12.5938 10.0083 12.6088 9.95904 12.6128 9.91412C13.0657 9.91154 13.1067 9.66428 13.11 9.63373C13.113 9.60596 13.1045 9.57826 13.0865 9.55693C13.0685 9.53561 13.0425 9.5224 13.0147 9.5208L11.8273 9.4494C11.7776 9.4458 11.7333 9.47912 11.7218 9.52764C11.7215 9.52842 11.7013 9.60385 11.638 9.66416C11.5528 9.74553 11.4155 9.7885 11.2663 9.81127C11.2668 9.7976 11.2649 9.78369 11.2597 9.7701C11.2393 9.71744 11.1801 9.69186 11.1276 9.71166C10.8824 9.80678 10.4856 9.79483 10.1751 9.77322C10.2227 9.73432 10.2801 9.69576 10.3259 9.67061C10.3646 9.64928 10.3854 9.60557 10.3772 9.56209C10.3712 9.53049 10.3484 9.5085 10.3208 9.49436C10.4071 9.45076 10.4779 9.40865 10.5451 9.36772C10.6616 9.29631 10.7717 9.22901 10.9723 9.1594C11.3594 9.0249 11.8074 8.98401 11.8119 8.98358C11.822 8.98276 11.832 8.98018 11.8415 8.97639C11.8574 8.96979 13.1211 8.44041 13.7165 7.21893C13.7086 7.25585 13.7003 7.28959 13.6912 7.31909C13.6756 7.3694 13.7008 7.42307 13.7492 7.44338C13.7867 7.45917 13.8293 7.45096 13.8582 7.42424C13.8206 7.52342 13.7866 7.60143 13.7588 7.64752C13.7305 7.69444 13.7442 7.7553 13.7897 7.78561C13.8004 7.7926 13.8119 7.79737 13.8236 7.80018C13.7776 7.86764 13.7308 7.93147 13.6842 7.98995C13.6532 8.02885 13.655 8.08436 13.6874 8.12108C13.6074 8.20487 13.5365 8.27393 13.4826 8.31784C13.4474 8.34635 13.4359 8.39405 13.4521 8.43479C13.4001 8.46452 13.3574 8.48549 13.3278 8.49444C13.2781 8.5094 13.2476 8.55948 13.257 8.61057C13.2618 8.63752 13.277 8.66026 13.2979 8.67522C13.2355 8.69198 13.1671 8.70815 13.0929 8.72287C13.0511 8.73123 13.0188 8.76459 13.012 8.80666C13.0052 8.84877 13.0252 8.89069 13.0622 8.91182C13.0654 8.91362 13.1002 8.93338 13.1537 8.95612C12.956 9.03573 12.6031 9.13971 12.024 9.19678C11.9679 9.20237 11.9269 9.25248 11.9324 9.30854C11.9379 9.36463 11.9864 9.40354 12.0442 9.40033C13.1435 9.29158 13.4829 9.01643 13.4968 9.00463C13.5285 8.97807 13.5411 8.93479 13.5285 8.8953C13.5202 8.86916 13.5018 8.84803 13.4782 8.8358C13.8294 8.72526 13.9802 8.60291 13.9881 8.59635C14.0266 8.5644 14.0363 8.50916 14.0109 8.46584C13.9854 8.42252 13.9322 8.40377 13.8858 8.42252C13.8728 8.42752 13.8519 8.43268 13.8256 8.43788C14.0613 8.27647 14.3115 8.08424 14.4215 7.99846C14.4408 7.98413 14.4584 7.9703 14.4739 7.95733C14.5166 7.92143 14.5226 7.85791 14.4873 7.81467C14.4523 7.77159 14.3885 7.76436 14.3448 7.79889C14.3289 7.81147 14.3123 7.82444 14.2951 7.8378C14.2443 7.87553 14.1794 7.91823 14.1085 7.96209C14.376 7.65838 14.6453 7.32913 14.7222 7.23456C14.7292 7.22596 14.7361 7.21741 14.7431 7.20881C14.7784 7.16491 14.7715 7.10065 14.7276 7.06534C14.6836 7.02944 14.6193 7.03682 14.584 7.08049C14.5821 7.08268 14.5732 7.09393 14.5586 7.1119C14.478 7.21026 14.3932 7.30549 14.3095 7.39444C14.582 6.90057 14.7883 6.41444 14.8185 6.34241C14.8196 6.33983 14.8206 6.33725 14.8217 6.3346C14.8434 6.28292 14.8188 6.22303 14.7667 6.20147ZM9.97799 9.64549L10.0059 9.64912C9.97166 9.68111 9.94381 9.71697 9.9217 9.75401C9.87318 9.7501 9.82916 9.74666 9.79467 9.74514C9.84221 9.71408 9.90338 9.68037 9.97799 9.64549Z" fill="#FFE15A"/>
</svg>
