<svg width="30" height="30" viewBox="0 0 30 30" fill="none" xmlns="http://www.w3.org/2000/svg">
<path d="M27.5 13.8373V20.8123C27.5 24.4998 24.5 27.4998 20.8125 27.4998H9.1875C5.5 27.4998 2.5 24.4998 2.5 20.8123V11.7998H27.175C27.3625 12.3623 27.4625 12.9373 27.4875 13.5498C27.5 13.6373 27.5 13.7498 27.5 13.8373Z" fill="#8B8B8B"/>
<path opacity="0.4" d="M27.175 11.8H2.5V8.025C2.5 4.975 4.975 2.5 8.025 2.5H10.9375C12.975 2.5 13.6125 3.1625 14.425 4.25L16.175 6.575C16.5625 7.0875 16.6125 7.1625 17.3375 7.1625H20.825C23.7875 7.15 26.3125 9.1 27.175 11.8Z" fill="#8B8B8B"/>
</svg>
