<svg width="30" height="30" viewBox="0 0 30 30" fill="none" xmlns="http://www.w3.org/2000/svg">
<path opacity="0.4" d="M15 27.5127C21.9036 27.5127 27.5 21.9163 27.5 15.0127C27.5 8.10914 21.9036 2.5127 15 2.5127C8.09644 2.5127 2.5 8.10914 2.5 15.0127C2.5 21.9163 8.09644 27.5127 15 27.5127Z" fill="#8B8B8B"/>
<path d="M15 8.6748C12.4125 8.6748 10.3125 10.7748 10.3125 13.3623C10.3125 15.8998 12.3 17.9623 14.9375 18.0373C14.975 18.0373 15.025 18.0373 15.05 18.0373C15.075 18.0373 15.1125 18.0373 15.1375 18.0373C15.15 18.0373 15.1625 18.0373 15.1625 18.0373C17.6875 17.9498 19.675 15.8998 19.6875 13.3623C19.6875 10.7748 17.5875 8.6748 15 8.6748Z" fill="#8B8B8B"/>
<path d="M23.4754 24.1998C21.2504 26.2498 18.2754 27.5123 15.0004 27.5123C11.7254 27.5123 8.75039 26.2498 6.52539 24.1998C6.82539 23.0623 7.63789 22.0248 8.82539 21.2248C12.2379 18.9498 17.7879 18.9498 21.1754 21.2248C22.3754 22.0248 23.1754 23.0623 23.4754 24.1998Z" fill="#8B8B8B"/>
</svg>
