<svg width="20" height="20" viewBox="0 0 20 20" fill="none" xmlns="http://www.w3.org/2000/svg">
<circle cx="10" cy="10" r="10" fill="#B2C4F8"/>
<path d="M9.70719 11.18C9.70719 11.004 9.73519 10.832 9.79119 10.664C9.85519 10.488 9.93519 10.324 10.0312 10.172C10.1272 10.02 10.2352 9.88 10.3552 9.752C10.4752 9.616 10.5952 9.5 10.7152 9.404C10.8352 9.308 10.9552 9.2 11.0752 9.08C11.1952 8.96 11.3032 8.836 11.3992 8.708C11.4952 8.58 11.5712 8.452 11.6272 8.324C11.6912 8.188 11.7232 8.052 11.7232 7.916C11.7232 7.636 11.6272 7.42 11.4352 7.268C11.2432 7.116 10.9752 7.04 10.6312 7.04C9.95919 7.04 9.48319 7.396 9.20319 8.108L7.78719 7.292C8.02719 6.692 8.40719 6.232 8.92719 5.912C9.45519 5.592 10.0432 5.432 10.6912 5.432C11.4112 5.432 12.0392 5.644 12.5752 6.068C13.1112 6.484 13.3792 7.06 13.3792 7.796C13.3792 8.092 13.3272 8.36 13.2232 8.6C13.1272 8.832 13.0032 9.044 12.8512 9.236C12.7072 9.428 12.5472 9.604 12.3712 9.764C12.1952 9.924 12.0312 10.08 11.8792 10.232C11.7352 10.384 11.6112 10.536 11.5072 10.688C11.4112 10.84 11.3632 11.004 11.3632 11.18H9.70719ZM11.2552 13.856C11.0552 14.056 10.8152 14.156 10.5352 14.156C10.2552 14.156 10.0152 14.056 9.81519 13.856C9.61519 13.656 9.51519 13.416 9.51519 13.136C9.51519 12.856 9.61519 12.616 9.81519 12.416C10.0152 12.216 10.2552 12.116 10.5352 12.116C10.8152 12.116 11.0552 12.216 11.2552 12.416C11.4552 12.616 11.5552 12.856 11.5552 13.136C11.5552 13.416 11.4552 13.656 11.2552 13.856Z" fill="#3E6CED"/>
</svg>
