<svg width="30" height="30" viewBox="0 0 30 30" fill="none" xmlns="http://www.w3.org/2000/svg">
<path opacity="0.4" d="M20.2375 2.5H9.775C5.2125 2.5 2.5 5.2125 2.5 9.7625V20.225C2.5 24.775 5.2125 27.4875 9.7625 27.4875H20.225C24.775 27.4875 27.4875 24.775 27.4875 20.225V9.7625C27.5 5.2125 24.7875 2.5 20.2375 2.5Z" fill="#8B8B8B"/>
<path d="M14.3373 18.8C14.4248 18.8875 14.5248 18.95 14.6373 19C14.7498 19.05 14.8748 19.075 14.9998 19.075C15.1248 19.075 15.2373 19.05 15.3623 19C15.4748 18.95 15.5748 18.8875 15.6623 18.8L19.4123 15.05C19.7748 14.6875 19.7748 14.0875 19.4123 13.725C19.0498 13.3625 18.4498 13.3625 18.0873 13.725L15.9373 15.875V8.1375C15.9373 7.625 15.5123 7.2 14.9998 7.2C14.4873 7.2 14.0623 7.625 14.0623 8.1375V15.875L11.9123 13.725C11.5498 13.3625 10.9498 13.3625 10.5873 13.725C10.2248 14.0875 10.2248 14.6875 10.5873 15.05L14.3373 18.8Z" fill="#8B8B8B"/>
<path d="M23.3874 20.35C23.2249 19.8625 22.6999 19.6 22.1999 19.7625C17.5499 21.3125 12.4374 21.3125 7.78736 19.7625C7.29986 19.6 6.76236 19.8625 6.59986 20.35C6.43736 20.8375 6.69986 21.375 7.18736 21.5375C9.69986 22.375 12.3374 22.8 14.9874 22.8C17.6374 22.8 20.2749 22.375 22.7874 21.5375C23.2874 21.3625 23.5499 20.8375 23.3874 20.35Z" fill="#8B8B8B"/>
</svg>
