<svg width="120" height="76" viewBox="0 0 120 76" fill="none" xmlns="http://www.w3.org/2000/svg">
<path d="M60.3502 44.75C60.1502 44.75 59.8502 44.75 59.6002 44.75C54.3502 44.55 50.2002 40.3 50.2002 35C50.2002 29.6 54.5502 25.25 59.9502 25.25C65.3502 25.25 69.7002 29.65 69.7002 35C69.7502 40.3 65.6002 44.6 60.3502 44.75Z" fill="url(#paint0_linear_1658_1486)"/>
<path d="M46.2502 59.8C39.6002 64.25 39.6002 71.5 46.2502 75.95C53.8002 81 66.2002 81 73.7502 75.95C80.4002 71.5 80.4002 64.25 73.7502 59.8C66.2002 54.8 53.8502 54.8 46.2502 59.8Z" fill="url(#paint1_linear_1658_1486)"/>
<path opacity="0.4" d="M90 10H30C21.7 10 15 16.65 15 24.85V79.4C15 87.6 21.7 94.25 30 94.25H33.8C37.8 94.25 41.6 95.8 44.4 98.6L52.95 107.05C56.85 110.9 63.2 110.9 67.1 107.05L75.65 98.6C78.45 95.8 82.3 94.25 86.25 94.25H90C98.3 94.25 105 87.6 105 79.4V24.85C105 16.65 98.3 10 90 10ZM60 25.25C65.4 25.25 69.75 29.65 69.75 35C69.75 40.3 65.55 44.55 60.35 44.75C60.15 44.75 59.85 44.75 59.6 44.75C54.35 44.55 50.2 40.3 50.2 35C50.25 29.65 54.6 25.25 60 25.25ZM73.75 75.95C66.2 81 53.8 81 46.25 75.95C39.6 71.55 39.6 64.25 46.25 59.8C53.85 54.75 66.25 54.75 73.75 59.8C80.4 64.25 80.4 71.5 73.75 75.95Z" fill="url(#paint2_linear_1658_1486)"/>
<defs>
<linearGradient id="paint0_linear_1658_1486" x1="59.9504" y1="25.25" x2="59.9504" y2="44.75" gradientUnits="userSpaceOnUse">
<stop stop-color="#FFDDB9"/>
<stop offset="1" stop-color="#FF8500"/>
</linearGradient>
<linearGradient id="paint1_linear_1658_1486" x1="60.0002" y1="56.05" x2="60.0002" y2="79.7375" gradientUnits="userSpaceOnUse">
<stop stop-color="#FFDDB9"/>
<stop offset="1" stop-color="#FF8500"/>
</linearGradient>
<linearGradient id="paint2_linear_1658_1486" x1="60" y1="10" x2="60" y2="109.938" gradientUnits="userSpaceOnUse">
<stop stop-color="#FFDDB9"/>
<stop offset="1" stop-color="#FF8500"/>
</linearGradient>
</defs>
</svg>
