<svg width="24" height="24" viewBox="0 0 24 24" fill="none" xmlns="http://www.w3.org/2000/svg">
<path d="M16.82 1.90997H7.18001C5.06001 1.90997 3.32001 3.64997 3.32001 5.76997V19.86C3.32001 21.66 4.61001 22.42 6.19001 21.55L11.07 18.84C11.59 18.55 12.43 18.55 12.94 18.84L17.82 21.55C19.4 22.43 20.69 21.67 20.69 19.86V5.76997C20.68 3.64997 18.95 1.90997 16.82 1.90997Z" fill="#3E6CED"/>
<path d="M11.09 13.25C10.9 13.25 10.71 13.18 10.56 13.03L9.06 11.53C8.77 11.24 8.77 10.76 9.06 10.47C9.35 10.18 9.83 10.18 10.12 10.47L11.09 11.44L14.56 7.97C14.85 7.68 15.33 7.68 15.62 7.97C15.91 8.26 15.91 8.74 15.62 9.03L11.62 13.03C11.47 13.18 11.28 13.25 11.09 13.25Z" fill="#94AFFF"/>
</svg>
