<svg width="184" height="30" viewBox="0 0 184 30" fill="none" xmlns="http://www.w3.org/2000/svg">
<path d="M16.628 23.306C17.148 23.306 17.564 23.514 17.876 23.93C18.214 24.346 18.383 24.879 18.383 25.529C18.383 25.971 18.253 26.387 17.993 26.777C17.733 27.141 17.369 27.453 16.901 27.713C16.017 28.181 14.99 28.571 13.82 28.883C12.65 29.169 11.571 29.312 10.583 29.312C8.50299 29.312 6.68299 28.909 5.12299 28.103C3.58899 27.297 2.40599 26.153 1.57399 24.671C0.741989 23.163 0.325989 21.395 0.325989 19.367C0.325989 17.417 0.728989 15.688 1.53499 14.18C2.34099 12.672 3.45899 11.502 4.88899 10.67C6.31899 9.812 7.94399 9.383 9.76399 9.383C11.506 9.383 13.027 9.773 14.327 10.553C15.653 11.307 16.68 12.399 17.408 13.829C18.136 15.233 18.5 16.884 18.5 18.782C18.5 19.354 18.357 19.796 18.071 20.108C17.811 20.394 17.434 20.537 16.94 20.537H6.01999C6.20199 22.071 6.66999 23.189 7.42399 23.891C8.17799 24.567 9.25699 24.905 10.661 24.905C11.415 24.905 12.091 24.814 12.689 24.632C13.287 24.45 13.95 24.203 14.678 23.891C15.042 23.735 15.393 23.605 15.731 23.501C16.069 23.371 16.368 23.306 16.628 23.306ZM9.91999 13.439C8.80199 13.439 7.90499 13.803 7.22899 14.531C6.55299 15.233 6.14999 16.26 6.01999 17.612H13.547C13.469 16.234 13.118 15.194 12.494 14.492C11.896 13.79 11.038 13.439 9.91999 13.439ZM38.3979 1.31C39.3079 1.31 40.0359 1.557 40.5819 2.051C41.1539 2.545 41.4399 3.195 41.4399 4.001V26.465C41.4399 27.297 41.1669 27.973 40.6209 28.493C40.1009 28.987 39.3989 29.234 38.5149 29.234C37.6309 29.234 36.9159 28.987 36.3699 28.493C35.8499 27.973 35.5899 27.297 35.5899 26.465V26.153C35.0179 27.141 34.1989 27.921 33.1329 28.493C32.0929 29.039 30.9099 29.312 29.5839 29.312C27.9459 29.312 26.4769 28.896 25.1769 28.064C23.9029 27.206 22.9019 26.023 22.1739 24.515C21.4719 22.981 21.1209 21.226 21.1209 19.25C21.1209 17.274 21.4719 15.545 22.1739 14.063C22.9019 12.555 23.9029 11.398 25.1769 10.592C26.4509 9.786 27.9199 9.383 29.5839 9.383C30.8839 9.383 32.0539 9.656 33.0939 10.202C34.1599 10.748 34.9789 11.515 35.5509 12.503V3.884C35.5509 3.104 35.8109 2.48 36.3309 2.012C36.8509 1.544 37.5399 1.31 38.3979 1.31ZM31.2999 24.827C32.6779 24.827 33.7309 24.359 34.4589 23.423C35.2129 22.461 35.5899 21.096 35.5899 19.328C35.5899 17.56 35.2129 16.208 34.4589 15.272C33.7309 14.336 32.6779 13.868 31.2999 13.868C29.9219 13.868 28.8559 14.336 28.1019 15.272C27.3479 16.182 26.9709 17.508 26.9709 19.25C26.9709 21.018 27.3479 22.396 28.1019 23.384C28.8559 24.346 29.9219 24.827 31.2999 24.827ZM61.4579 9.461C62.3679 9.461 63.0829 9.708 63.6029 10.202C64.1489 10.696 64.4219 11.372 64.4219 12.23V26.543C64.4219 27.349 64.1359 27.999 63.5639 28.493C63.0179 28.987 62.3029 29.234 61.4189 29.234C60.5869 29.234 59.9239 29 59.4299 28.532C58.9359 28.064 58.6889 27.44 58.6889 26.66V26.27C58.0909 27.258 57.2979 28.012 56.3099 28.532C55.3479 29.052 54.2559 29.312 53.0339 29.312C50.6159 29.312 48.8089 28.649 47.6129 27.323C46.4429 25.971 45.8579 23.943 45.8579 21.239V12.23C45.8579 11.372 46.1179 10.696 46.6379 10.202C47.1839 9.708 47.9119 9.461 48.8219 9.461C49.7319 9.461 50.4469 9.708 50.9669 10.202C51.4869 10.696 51.7469 11.372 51.7469 12.23V21.356C51.7469 22.5 51.9809 23.345 52.4489 23.891C52.9429 24.437 53.6839 24.71 54.6719 24.71C55.8159 24.71 56.7389 24.32 57.4409 23.54C58.1689 22.76 58.5329 21.733 58.5329 20.459V12.23C58.5329 11.372 58.7929 10.696 59.3129 10.202C59.8329 9.708 60.5479 9.461 61.4579 9.461ZM71.9047 29.234C71.0467 29.234 70.3317 29 69.7597 28.532C69.2137 28.064 68.9407 27.375 68.9407 26.465V4.079C68.9407 3.169 69.2137 2.48 69.7597 2.012C70.3317 1.544 71.0467 1.31 71.9047 1.31C72.7367 1.31 73.4257 1.544 73.9717 2.012C74.5437 2.48 74.8297 3.169 74.8297 4.079V26.465C74.8297 27.375 74.5437 28.064 73.9717 28.532C73.4257 29 72.7367 29.234 71.9047 29.234ZM82.3022 29.234C81.4442 29.234 80.7292 29 80.1572 28.532C79.6112 28.064 79.3382 27.375 79.3382 26.465V12.23C79.3382 11.32 79.6242 10.631 80.1962 10.163C80.7682 9.695 81.4702 9.461 82.3022 9.461C83.1342 9.461 83.8232 9.695 84.3692 10.163C84.9412 10.631 85.2272 11.32 85.2272 12.23V26.465C85.2272 27.375 84.9412 28.064 84.3692 28.532C83.8232 29 83.1342 29.234 82.3022 29.234ZM101.748 9.383C104.036 9.383 105.739 10.059 106.857 11.411C107.975 12.737 108.534 14.752 108.534 17.456V26.465C108.534 27.323 108.261 27.999 107.715 28.493C107.195 28.987 106.48 29.234 105.57 29.234C104.66 29.234 103.945 28.987 103.425 28.493C102.905 27.999 102.645 27.323 102.645 26.465V17.729C102.645 16.429 102.398 15.48 101.904 14.882C101.436 14.284 100.695 13.985 99.6806 13.985C98.4586 13.985 97.4706 14.375 96.7166 15.155C95.9886 15.935 95.6246 16.975 95.6246 18.275V26.465C95.6246 27.323 95.3646 27.999 94.8446 28.493C94.3246 28.987 93.6096 29.234 92.6996 29.234C91.7896 29.234 91.0616 28.987 90.5156 28.493C89.9956 27.999 89.7356 27.323 89.7356 26.465V12.152C89.7356 11.346 90.0086 10.696 90.5546 10.202C91.1266 9.708 91.8546 9.461 92.7386 9.461C93.5446 9.461 94.1946 9.708 94.6886 10.202C95.2086 10.67 95.4686 11.281 95.4686 12.035V12.581C96.1446 11.541 97.0156 10.748 98.0816 10.202C99.1736 9.656 100.396 9.383 101.748 9.383ZM128.296 23.306C128.816 23.306 129.232 23.514 129.544 23.93C129.882 24.346 130.051 24.879 130.051 25.529C130.051 25.971 129.921 26.387 129.661 26.777C129.401 27.141 129.037 27.453 128.569 27.713C127.685 28.181 126.658 28.571 125.488 28.883C124.318 29.169 123.239 29.312 122.251 29.312C120.171 29.312 118.351 28.909 116.791 28.103C115.257 27.297 114.074 26.153 113.242 24.671C112.41 23.163 111.994 21.395 111.994 19.367C111.994 17.417 112.397 15.688 113.203 14.18C114.009 12.672 115.127 11.502 116.557 10.67C117.987 9.812 119.612 9.383 121.432 9.383C123.174 9.383 124.695 9.773 125.995 10.553C127.321 11.307 128.348 12.399 129.076 13.829C129.804 15.233 130.168 16.884 130.168 18.782C130.168 19.354 130.025 19.796 129.739 20.108C129.479 20.394 129.102 20.537 128.608 20.537H117.688C117.87 22.071 118.338 23.189 119.092 23.891C119.846 24.567 120.925 24.905 122.329 24.905C123.083 24.905 123.759 24.814 124.357 24.632C124.955 24.45 125.618 24.203 126.346 23.891C126.71 23.735 127.061 23.605 127.399 23.501C127.737 23.371 128.036 23.306 128.296 23.306ZM121.588 13.439C120.47 13.439 119.573 13.803 118.897 14.531C118.221 15.233 117.818 16.26 117.688 17.612H125.215C125.137 16.234 124.786 15.194 124.162 14.492C123.564 13.79 122.706 13.439 121.588 13.439ZM160.674 24.437C161.272 25.009 161.571 25.659 161.571 26.387C161.571 27.115 161.298 27.765 160.752 28.337C160.232 28.909 159.621 29.195 158.919 29.195C158.243 29.195 157.619 28.922 157.047 28.376L148.506 20.459V26.426C148.506 27.336 148.22 28.025 147.648 28.493C147.102 28.961 146.413 29.195 145.581 29.195C144.723 29.195 144.008 28.961 143.436 28.493C142.89 28.025 142.617 27.336 142.617 26.426V4.079C142.617 3.169 142.89 2.48 143.436 2.012C144.008 1.544 144.723 1.31 145.581 1.31C146.413 1.31 147.102 1.544 147.648 2.012C148.22 2.48 148.506 3.169 148.506 4.079V18.041L156.306 10.358C156.878 9.786 157.515 9.5 158.217 9.5C158.945 9.5 159.582 9.773 160.128 10.319C160.674 10.839 160.947 11.463 160.947 12.191C160.947 12.867 160.648 13.504 160.05 14.102L154.863 19.055L160.674 24.437ZM178.565 24.593C180.333 24.593 181.217 25.334 181.217 26.816C181.217 28.272 180.333 29 178.565 29H165.929C165.149 29 164.512 28.753 164.018 28.259C163.524 27.765 163.277 27.18 163.277 26.504C163.277 25.724 163.55 25.048 164.096 24.476L173.222 14.258H165.734C163.966 14.258 163.082 13.53 163.082 12.074C163.082 10.592 163.966 9.851 165.734 9.851H177.902C178.708 9.851 179.345 10.098 179.813 10.592C180.307 11.086 180.554 11.684 180.554 12.386C180.554 13.166 180.281 13.842 179.735 14.414L170.648 24.593H178.565Z" fill="#333333"/>
<circle cx="82.5" cy="3.5" r="3.5" fill="#3E6CED"/>
<circle cx="136.5" cy="25.5" r="3.5" fill="#FF6D29"/>
</svg>
