<svg width="24" height="24" viewBox="0 0 24 24" fill="none" xmlns="http://www.w3.org/2000/svg">
<path opacity="0.4" d="M12 2C6.47715 2 2 6.47715 2 12C2 17.5228 6.47715 22 12 22C17.5228 22 22 17.5228 22 12C22 6.47715 17.5228 2 12 2Z" fill="#292929"/>
<path d="M12 8.99008C12.19 8.99008 12.38 9.06008 12.53 9.21008L16.06 12.7401C16.35 13.0301 16.35 13.5101 16.06 13.8001C15.77 14.0901 15.29 14.0901 15 13.8001L12 10.8001L9 13.8001C8.71 14.0901 8.23 14.0901 7.94 13.8001C7.65 13.5101 7.65 13.0301 7.94 12.7401L11.47 9.21008C11.62 9.06008 11.81 8.99008 12 8.99008Z" fill="#292929"/>
</svg>
