<svg width="70" height="60" viewBox="0 0 70 60" fill="none" xmlns="http://www.w3.org/2000/svg">
<g opacity="0.2">
<path d="M64.088 52.6451C64.088 53.5691 63.8827 54.5187 63.4463 55.4426C63.01 56.3666 62.4454 57.2392 61.7011 58.0605C60.4435 59.4465 59.0575 60.4474 57.492 61.0891C55.952 61.7307 54.2838 62.0643 52.4872 62.0643C49.8693 62.0643 47.0718 61.4484 44.1202 60.1908C41.1687 58.9332 38.2172 57.2392 35.2913 55.109C32.3398 52.9531 29.5422 50.5662 26.873 47.9226C24.2295 45.2534 21.8426 42.4559 19.7123 39.53C17.6078 36.6042 15.9138 33.6783 14.6819 30.7781C13.45 27.8522 12.834 25.0547 12.834 22.3855C12.834 20.6402 13.142 18.972 13.7579 17.432C14.3739 15.8664 15.3492 14.4292 16.7095 13.1459C18.3521 11.529 20.1487 10.7333 22.0479 10.7333C22.7665 10.7333 23.4852 10.8873 24.1268 11.1953C24.7941 11.5033 25.3844 11.9653 25.8464 12.6326L31.8008 21.0252C32.2628 21.6668 32.5964 22.2571 32.8274 22.8218C33.0584 23.3608 33.1867 23.8997 33.1867 24.3874C33.1867 25.0034 33.0071 25.6193 32.6477 26.2096C32.3141 26.7999 31.8265 27.4159 31.2105 28.0319L29.2599 30.0595C28.9776 30.3418 28.8493 30.6754 28.8493 31.0861C28.8493 31.2914 28.8749 31.4711 28.9263 31.6764C29.0032 31.8817 29.0802 32.0357 29.1316 32.1897C29.5936 33.0367 30.3892 34.1403 31.5185 35.4749C32.6734 36.8095 33.9054 38.1698 35.24 39.53C36.6259 40.8903 37.9605 42.1479 39.3208 43.3029C40.6554 44.4321 41.759 45.2021 42.6316 45.6641C42.76 45.7154 42.9139 45.7924 43.0936 45.8694C43.2989 45.9464 43.5043 45.9721 43.7352 45.9721C44.1716 45.9721 44.5052 45.8181 44.7875 45.5358L46.7381 43.6108C47.3797 42.9692 47.9957 42.4816 48.586 42.1736C49.1763 41.8143 49.7666 41.6346 50.4083 41.6346C50.8959 41.6346 51.4092 41.7373 51.9739 41.9683C52.5385 42.1992 53.1288 42.5329 53.7705 42.9692L62.2657 49.0006C62.933 49.4626 63.395 50.0016 63.6773 50.6432C63.934 51.2848 64.088 51.9265 64.088 52.6451Z" fill="#FF8B0D" stroke="#FF8B0D" stroke-width="1.5" stroke-miterlimit="10"/>
</g>
</svg>
